<?xml version="1.0" encoding="UTF-8"?><svg xmlns="http://www.w3.org/2000/svg" viewBox="0 0 600 600"><defs><style>.cls-1{fill:#335799;fill-rule:evenodd;}</style></defs><g id="Layer_1" image-rendering="optimizeQuality" shape-rendering="geometricPrecision" text-rendering="geometricPrecision"><path class="cls-1" d="m90.32,385.87v150.97h47.53v-54.31h32.75l13.18-33.15h-45.93v-30.75h55.91l12.38-32.75h-115.82Zm130.6,150.97h47.13v-150.97h-47.13v150.97h0Zm224.86-150.57l-54.32,150.97h45.53l5.99-20.77h52.72l6.39,20.77h46.73l-54.31-150.97h-48.72,0Zm23.56,38.74l-18.37,62.71h37.14l-18.77-62.71Zm-168.14-39.14v150.97h47.53v-54.31h33.15l13.18-33.15h-46.33v-30.75h55.92l12.38-32.75h-115.82Z"/><path class="cls-1" d="m283.63,264.05c.4,7.59-.4,17.17-4,26.76-1.59,2-3.19,4.39-5.59,6.39-.31-.71-.88-1.28-1.59-1.6-2-.8-5.19-2-7.19-2.4-1.2,0-4,0-5.19,2-.8,1.2-1.59,1.59-3.19,1.59-.8,0-2,.4-2.4,2-.4,1.6-1.2,4.4-2.8,4.4-1.2.4-4.39.4-4.79,1.2-.4.8-1.2,3.59-2.4,4.79-.8.8-1.59,2-2.8.8-1.6-1.2-2.4-4-2.8-4.79-.4-1.2-1.2-2.8-2-3.59-1.2-.8-2-1.2-2-2.8,0-2.4,0-3.19-.8-4.39-.8-1.2-2-4.4-2-5.99.4-1.6.8-4,2-4.79.8-.8,4.79-4.79,5.19-5.59.8-.8,2-2.4,2-4,.4-1.2.4-2.8.4-4.79,0-2.4-.4-2.4.4-3.19.8-.8,1.2-.8,2.4-.8s2,0,2.8-1.2c.8-2,1.2-4,2.4-5.59.8-1.6,2-2,2.8-2.4.8-.4,2.8-.4,3.19-.4.8.4.8.8,1.2,1.2,0,.8.4,2.8,2,3.59.8.8,2.4,2.4,4,1.59,1.59-.4,2-.4,2-2v-5.19c0-1.6-.4-3.19.8-3.19,1.6,0,2.4.8,3.2,1.6.8,1.59,3.19,3.59,4.39,4.79,1.2,1.59,2.8,2.8,5.59,4,2,.4,3.59,1.6,4.79,2h0Zm-39.94-69.1c-4.4-12.78-9.19-22.36-13.18-28.75l21.97-29.95c8.79.8,21.17,2.8,33.15,10.38-.8,2.4-1.59,3.59-.8,5.59.4,1.59-.8,3.19-.8,3.59,0,.8-.4,2-.4,2.4,0,.8-.4,2.8-.4,4,0,.8,0,2.8-.8,3.59-1.2.4-1.6,1.6-3.59.4-1.59-1.2-2.4-2.4-4-2.8-1.2-.8-1.59-.8-2.4,0-.4.8-1.59,2-.4,3.59.4,1.2,1.6,2.4,2,3.19.4,1.2.4,1.59,0,2.4-.4.8-1.2,1.59-.8,3.59.4,1.59.4,4.4.8,6.39,0,1.2-.4,2.4-.8,3.19-.4.4-.4,1.2-.4,1.59,0,0-.4,1.6-2,2.4-1.6.8-4.4,2-5.19,2.4-.8,1.2-2.79,2-2,5.59.4,2-.8,5.99-.4,6.39.4.8.8,2.8-.4,3.59-1.6.4,0,0-1.2.4-.8,0-2,.8-1.2,2.8.8,1.2,1.2,3.59,1.2,5.19,0,1.2-2,2.8-3.19,2.4-2-.8-4-3.2-5.19-5.19-.4-1.2-1.2-4.79-1.6-6.79-.4-2.8-3.59-2.8-5.19-4,0,0-.4,0-.4-.4-.8-2.4-1.6-4.4-2.4-7.19h0Zm-111.03,42.73c6.59,7.15,13.81,13.7,21.57,19.57-.8,1.2-3.19,4.39-3.19,5.59,0,2-.4,5.99-.8,7.19-.4.8-2.8,2.8-3.59,4.79-.4,1.2-.8,3.19-2,4.4-1.6,2-2,3.59-3.59,4.79-2.4,1.59-4.39,2.4-5.19,2.8-1.2,0-2,0-3.19.4-1.2.8-4.4.8-5.59.8-1.6,0-3.2-.8-3.59-2.4,0-2-.4-3.19-2-4.39-1.2-1.6-2-5.59-2.8-7.19-.4-1.59-2.8-5.99-3.59-7.59-.4-1.2-1.59-4.4-1.2-7.99.4-2,1.6-5.19,1.6-7.59s0-5.59-.4-7.59l17.57-5.59h0Zm-37.54-91.86l.8-.4c1.2-.4,2.8-.4,4.4-.4,1.59.8,2.8,1.2,3.59,1.59.8.4,1.59.8,2.4,0,.4-.8,1.2-.8,2-.8,1.59,0,2,0,2-1.2s0-3.19-.8-5.19c2.4-.8,5.19-1.6,7.59-2,.8.4,1.2.4,1.6.8.8.4,1.2,1.2,4,1.2,2,0,2.79-.4,4-.4.4,0,.8,0,1.59-.4l20.37,27.56c-1.2,1.2-1.6,2.4-2.4,3.59-1.2-.4-3.59-1.2-4-3.59-.4-2-1.2-4-1.59-5.19-.4-.8-2.8-4-3.59-5.19-1.2-1.2-2.8-4-4.39-5.19-1.59-.8-2.8-.4-2.8.8.4,1.2,0,2,1.2,3.2,0,.8.4,1.2.4,2,0,1.2.4,2,.8,3.19.8.8,3.59,3.59,4,4.4.8.8,1.2,1.59,1.2,2-.4.8-.4,1.2-.8.8-.8-.8-1.2-1.2-2.4-1.2-.4,0-.8,0-.8.4,0,1.2-.4,2.8-.8,3.59-.4,1.6-2.8,3.59-3.59,2.8-.4-.4-.4-1.2,0-2.8,0-1.2.4-2.8,0-4.79-.37-1.66-1.2-3.18-2.4-4.39-1.6-1.2-2-3.59-2.4-5.19-.4-1.59-.8-4-2.8-4h-3.59c-1.2.4-2,.4-2.4,1.2-.8,1.2-.8,2-3.19,2.4s-4.4,0-4.4,1.6c0,1.2-.4,2.79-2,2.79-2,0-3.59-.4-4.79.8-1.6.8-2,2.4-2.8,1.2q-.4-.4-1.2-.8c-2.4-1.2-2.8-1.2-3.19-1.6-.8-.8-2-2.4-1.59-3.19.4-1.2,1.59-4.79,2-5.19v-3.59c-.02-.4.38-.79.78-1.19h0Zm40.34,49.12c-4,12.78-5.99,23.57-6.39,30.75l-16.78,5.59c0-1.59.4-2.79.4-3.99.8-1.6.8-3.19-.8-4.79-.8-.8-1.2-.4-2-.4-.8-.4-2.79-1.2-3.59-2-.4-1.2-1.2-2.4-3.19-2.4-1.6,0-3.59-.4-5.99.4-2.8.4-2,1.59-5.19.8-3.19-.8-4.39-1.59-6.39-3.19-1.2-1.2-2.4-2-4.4-5.59-1.6-3.19-1.6-3.59-2.8-5.19-1.2-.8-1.59-2-1.59-3.59s-.8-5.19,0-7.19c1.59-2.4,3.59-5.59,4-7.59,0-1.2,2-4.4,3.19-5.59.72-1.03,1.39-2.1,2-3.19,1.2-.4,3.59-1.59,4.39-2.8,1.2-.4,2.8-2.4,3.59-2.8.8-.4,2.4-1.2,3.19-2,.8-.4,1.2-.8,1.6-1.2.4,0,.8-.8,2.4,0,.8.4,2.39,1.2,4.79,1.2,1.6,0,3.59.8,5.19,0,1.6-.4,3.19-.4,4.4,0,.8.8,1.59,1.2,3.19,2.4.8,1.2,2,2,1.59,3.59-.4.8-.8,1.2-.4,2,.8,2,1.6,2.4,2.8,2.8.4.4,4,0,4.4.8.8.4,2.79,2.8,4,2.8.8,0,1.59.4,2.4-1.2,1.2-1.2,2.4-2,3.59-1.59.4,0,1.6.4,3.19.8-2,3.59-3.59,7.99-4.79,12.38h0Zm170.14-40.33c0,1.2-.8,4-2,5.99-.8,2.79-3.19,5.19-4.79,6.39-2,.8-2.8,2.4-3.99,4-1.2.8-3.19,1.6-3.19,2.8-.4.8.4.8,1.2.8,1.2.4,2,0,2.8,0,.8-.4,2.8-1.2,3.19.4.8,1.59,2.4,2,2.8,0,0-1.2,1.2-2.8,2.4-3.59,1.2-1.6,4-4,5.19-5.99.8-2,2.8-5.99,2.4-9.19,0-3.59-1.2-5.59-1.59-5.99-.8-.4-2-2-2.8.4-.41,1.6-1.2,2-1.6,4h0Zm-142.18,116.62c.4,2,.4,3.19-.4,5.59-.8,2-2,4.4-2.8,5.59-1.2,1.2-2,1.59-3.59,1.2-.8-.4-1.2-1.59-1.2-3.19,0-1.2.8-3.19.8-4.79,0-1.2,2-3.19,2.8-3.19.4-.8,1.59-1.2,2.79-2,.4-.81,1.6-.81,1.6.79h0Zm130.6-33.95c1.6,2,2.4,3.2,3.19,4.4,1.59.8,2.8,1.6,3.59,2.8.8,2,2.4,4.39,3.19,5.19,1.2,1.6,3.19,3.59,4.4,3.19,1.6,0,1.6-.4,1.6-1.59,0-1.6,0-2.8-2-5.19-2-2.4-3.59-4.4-4.79-6.79-1.59-1.59-3.19-4.79-5.19-5.19-2-.8-3.59-1.2-4.39,0-1.2.8-.8,2,.4,3.19h0Zm-26.36-19.57c-2,1.2-2.4,2.8-2.4,4.4,0,2,0,3.19,2,3.19,2,.4,3.59,0,4.79-.8,1.2-.4.8-2,.8-2.8s-.4-3.59-1.2-4.39c-.8-.41-1.6-1.6-4,.4h0Zm-78.28-62.3c-13.18,0-24.36,2.4-31.15,4l-19.17-25.96c1.2-.4,2-.4,2.8,0,1.2.4,1.6,0,3.19.8,2,.8,5.19.8,5.99.8s2.8,0,4,.8c1.2,0,4.39-.8,5.19-1.59,1.59-.8.8-1.59.4-2.4-.4-1.2-1.59-2.8.4-4.4,1.59-1.59,3.19-2,4.39-4,1.2-2.4.8-3.99,0-4.79-.92-.46-2.04-.3-2.8.4-1.59.4-2,1.2-3.59.8-.4,0-2.4.4-3.6.8-.4.4-2.39,2-3.99,3.59-.4,1.2-1.2,5.19-2.4,5.59-2.4.4-6.39-1.2-5.99-4,.4-1.2,1.6-2.4,1.2-3.19-.8-1.2-1.2-1.59-2.4-1.2h-2c1.59-2.8,3.59-6.39,5.99-9.58.8-.4,1.6-.8,3.19-.8,1.6-.8,8.39-2.8,9.58-3.59,1.59-.4,5.19-1.59,5.59-2,.4-.4,1.2-.4,2.4,0,.8,0,3.19.8,5.19-1.2,1.2-1.2,2.4-1.2,3.59-.4,1.2,1.59,1.2,3.19,2.8,3.19,2,0,3.59.4,3.59,4-.4,2.8-1.59,3.19-1.59,4.4s0,4,1.59,4c1.2,0,2-.4,2.4-.4s.8-.8,1.2-.8c.8,0,3.19-1.2,4-2.4.8-1.59,3.59-4,4.79-4.4,1.59,0,3.59.8,5.19-1.2.8-2,2.4-2.8,3.19-2.8s.8-.4,2,0c1.2.8,4,.4,4.79-.4,1.2-.4,1.2-.8,2.4-.8,3.2,0,4,.8,4.79-.8q1.2-1.59,2.8-1.59c1.2,0,1.59,0,2.4,2,.4,1.2,1.6,1.2,1.6,2.4,0,1.59,0,3.19.8,3.59.8,0,2,0,3.59-1.59.4-.4,1.2-1.59,1.6-2.8,5.42,6.44,9.99,13.55,13.58,21.17l-21.97,30.75c-7.18-1.6-17.97-4-31.54-4h0Z"/><path class="cls-1" d="m189.37,62.76c83.07,0,149.77,67.09,149.77,149.77s-66.7,149.76-149.77,149.76S40,295.2,40,212.53,106.7,62.76,189.37,62.76h0Zm-111.83,83.87c-.8-2.8-2-8.39-1.2-16.37-8.64,11.88-15.25,25.1-19.57,39.14-4.71,13.9-7.14,28.46-7.19,43.14,4-7.19,8.39-11.18,10.39-12.38.8-9.58,1.59-18.77,4.39-27.96,3.2-9.59,7.99-17.57,13.18-25.57h0Zm-15.17,64.7c-2.4,1.2-7.99,5.59-11.98,14.38,1.99,20.62,8.54,40.53,19.17,58.31,7.99,4.4,15.18,4.79,18.37,4.4-4-13.58-5.19-27.96-2.8-41.94-10.38-9.19-17.97-21.96-22.76-35.15Zm154.96-125.41c4.72-3.14,10.01-5.32,15.58-6.39-13.58-4.39-28.36-6.79-43.54-6.79s-29.56,2.4-43.14,6.79c7.99,1.6,13.18,4.79,14.78,6.39,9.58-2.4,18.77-4.4,28.35-4.4s19.18,2,27.97,4.4Zm-65.5,5.19c-2-2-8.39-5.59-17.97-6.79-18.77,7.99-35.94,20.77-49.52,35.94-1.59,9.58.4,16.38,1.2,18.77,11.98-7.59,25.56-13.58,39.54-14.78,5.99-13.18,15.58-24.76,26.76-33.15Zm166.95,109.03c2.39,1.2,6.78,5.19,10.78,12.38,0-13.98-2.39-29.16-7.19-43.14-4.78-14.38-11.18-27.56-19.57-39.14.8,7.99-.4,13.58-1.59,16.37,5.59,7.99,9.99,15.98,12.78,25.56,3.19,9.19,4.39,18.38,4.79,27.96h0Zm-77.48,131.4c-.4,2.8-3.19,7.99-8.39,13.98,13.58-4.39,26.75-10.78,38.74-19.57,11.98-9.18,22.76-19.57,31.15-31.15-7.59,3.19-13.18,4-15.97,4-5.87,7.53-12.72,14.25-20.37,19.97-7.59,5.59-15.98,9.58-25.16,12.78h0Zm49.92-43.13c3.19.4,9.99,0,18.37-4.4,10.63-17.78,17.18-37.69,19.17-58.31-4-8.79-9.99-13.18-11.98-14.38-4.79,13.18-12.78,25.96-23.17,35.15,2.8,13.98,1.6,28.35-2.4,41.93Zm-67.89-29.95c-8.69,6.24-18.07,11.47-27.96,15.58v37.94c9.19,5.19,23.56,11.18,40.34,10.39,8.79-3.2,16.78-6.79,24.76-11.98,7.99-5.59,13.58-12.38,19.17-19.57,6.39-16.38,4.4-31.56,2.4-41.94l-35.94-11.18c-4.4,5.19-12.39,13.18-22.77,20.77h0Zm-131,40.33c-2.8,0-8.39-.8-15.98-4,8.39,11.58,18.77,21.97,30.75,31.15,11.97,8.48,25.17,15.08,39.14,19.57-5.19-5.99-7.99-11.18-8.39-13.98-9.19-3.19-17.57-7.19-25.56-12.78-7.43-5.83-14.13-12.54-19.97-19.97Zm56.72,33.95c.4,2.8,2.8,9.19,9.99,16.38,19.57,4.4,41.14,4.4,61.1,0,6.79-7.19,9.58-13.58,9.99-16.38-13.98-.4-28.36-3.19-40.73-10.78-11.99,7.59-26.36,10.39-40.34,10.78h0Zm6.79-74.28c-.4-.4-1.2-.8-2-1.2h.4c.8-1.6,3.19-4.79,4.79-7.59.8-.8,1.2-1.59,1.59-2.4,8.39,6.39,17.57,11.18,28.75,16.37,19.97-8.39,34.35-18.77,48.73-35.15-.8-9.99-2.8-18.77-4.79-27.16.8-.4,2-.8,3.19-1.2q1.2-.4,3.59-.4c2,.4,4,1.2,5.99,2.4,2.4,9.58,3.59,17.97,4,23.56l35.55,11.98c7.99-7.19,17.98-18.77,22.77-35.15,0-9.98-.8-17.97-4-27.56-3.19-9.19-7.59-15.98-12.78-23.96-2-1.59-4.4-3.19-5.99-4.4v-.8c.8-2.4-.4-6.39.4-7.59.4-.8,1.2-1.2,1.59-2.4,2,.8,3.59,2,5.99,3.19.8-2.4,2.4-9.19,1.2-18.77-13.98-15.18-30.75-27.96-50.32-35.94-9.19,1.2-15.18,4.79-17.57,6.79,3.1,2.33,6.03,4.86,8.79,7.59l-.4.4c-1.2.4-2,2.4-3.19,4-.8,1.2-1.59,3.19-2.8,4.39-3.59-4-7.59-7.99-12.78-10.78-9.19-3.19-17.57-4.79-27.16-4.79s-17.57,1.6-26.76,4.79c-14.78,9.19-22.37,22.77-26.36,31.95l2.8,4.79c-.8,0-1.59.4-2.4.4-.8.4-4.79,3.59-6.79,4.4-.8,0-1.2.4-1.59.4l-1.59-2.4c-10.79.8-25.56,4-39.14,14.78-5.59,7.99-9.99,15.18-12.78,23.96-3.19,9.58-4,17.57-4,27.56,4.4,16.38,14.78,27.96,22.76,35.15l18.77-6.39v2.4c.4,2,2,4.4,2.4,7.19,0,.8.4,1.6.4,2.4l-17.97,5.59c-2.4,10.38-4,25.56,2,41.94,5.99,7.19,11.58,13.98,19.57,19.57,7.99,5.99,15.17,8.78,24.36,11.98,17.17.8,31.15-5.19,40.73-10.39v-37.94c-7.18-2.79-16.77-7.58-27.95-15.57h0Zm-15.58-75.88c2-4.79,4.4-9.19,5.99-12.78.8.4,3.19,1.6,4.4,2.4,1.2.8,3.19,2,4.4,2.4.4.4,1.2.4,2.39,1.2-2.39,2.8-3.59,6.39-5.59,9.99h-.8c-2-.4-4-.8-5.19-1.2-1.2-.8-3.19-1.2-4-1.6-.4,0-.8-.4-1.6-.4h0Z"/><path class="cls-1" d="m124.27,103.1c.4,0,1.59.4,1.59.4-.4.4-1.2.4-1.59.8,0,.8,1.59,1.2,1.2,1.59-.4.4-1.59,1.2-2.4,2-.8,1.59,0,3.19-.8,4.4-.8.4-1.2.4-1.2.8h1.6c.4.8.4,1.6,0,2,0,.8-.4,1.2-1.6,1.6-.4.4-1.59.8-1.59.8,0,.8,2,.8,1.59,1.2,0,1.6-4.79,1.6-5.99,2-4,.4-6.79,2.4-6.79.8-.4-1.6,5.99-3.19,5.99-4,0,0-.4,0-.8-.4-.8,0-1.2-.4-.8-.8,0-.4,1.59-.8,1.59-.8,0,0,.8-.4.8-.8.4-.4-.4-1.6-.4-2,.4-.4,2-.4,3.19-.8.8-.8.8-1.59,1.2-2.4,0-1.2-.4-1.59-.4-2,.4-.4,1.2-.4,1.59-.8.8-.8.4-1.6.4-1.6.4-.8,2-.8,2-.8.4-.4.8-.4.8-.4,0,0,.4-.8.8-.8h0Zm163.35,32.75c-10.38-6.39-21.97-10.78-33.55-11.58-4.39-9.58-10.78-17.97-18.37-25.56,1.6-.8,2.4-1.59,3.2-1.59.8-.8,1.2-1.59,3.19-1.59,1.6,0,2.4,0,4.79.8,1.6.8,3.19,1.59,5.59,1.2,2-.4,2.8,0,3.59-.4.8-.4,3.19-2,4.4-2.4.4-.4,1.2-.8,2.4-1.2,9.58,5.59,18.37,13.18,26.75,21.17-.4.4-1.2.8-1.2,1.59-2,2.8-3.59,3.59-4.4,4.39-.4,1.2-2.4,2.8-2.4,4.4,0,2-.4,2.8,1.2,2.8,2,.4,4,.4,4.79,1.2.4.8,2,1.6.8,4.39-.41.79-.8,1.19-.8,2.39h0Zm-98.25,31.95c11.18,0,21.57,1.6,30.35,3.59,5.99,10.38,10.38,19.97,13.58,29.95-1.2,1.2-2.8,1.59-3.19,2-.8.4-2,1.59-3.19,3.19-.8,1.59-2.8,4.79-4.39,5.59-1.2.8-3.59,2-3.59,3.59s-.8,4.79-1.2,5.99c-.4,1.6-1.6,5.19-2.8,5.19q-1.6.4-2.4-1.2c-.4-1.2-2-4-4.4-5.99-1.2-1.59-4-5.59-4.4-6.79-.4-1.2-.8-4.79-2-6.39-1.59-2.4-2.8-2.8-4.39-4-1.6-1.59-3.59-3.19-4.79-4.79-2-2-3.59-3.19-6.39-3.59-3.19,0-4,0-5.19.4-1.6.8-2.8,1.2-2.8,3.19,0,1.2-.4,2,.4,2.8,1.2.8,3.59,4,5.19,4.4,1.6.4,3.2,1.6,3.59,2.4,1.2.4,2.8,2.4,2.8,3.59,0,.8-.4,1.6-1.59,2.8-1.2.8-3.59,2.8-6.79,3.59-3.59.4-7.59,1.59-8.79.8-.8-.4-1.2-1.59-1.2-3.59.4-1.59,0-3.59-.8-5.19-1.2-1.2-2.8-5.19-3.59-7.19-.4-2.4-1.2-5.19-3.19-6.79-1.2-1.2-3.19-2-4.79-1.6-1.2.4-1.6,1.6-1.6,3.19-.4,1.6,0,4,.4,6.39.4,1.59.8,3.99.8,5.59,0,1.2.8,6.39,1.2,7.99s2.8,6.39,3.19,7.59c.8.8,1.59,2.8,3.19,3.19,1.2.8,1.59.8,2.8.8s3.59,0,3.59.4c0,.8.4,2-.4,2.8-.8,1.2-.8,2-1.2,2.4-.4.4-1.6,1.59-6.39,4-1.2.4-1.59,3.59-2,4.79-.4.8-1.2,2.4-2.4,4.4-6.79-5.19-13.18-11.58-19.57-18.77,1.2-16.38,4.79-29.56,10.78-42.73,2.8,0,8.39,0,9.19.4,1.2,0,3.59-.4,5.19-.8,1.2-.8,2.4-2,2.4-4.39,0-2.8-.8-4-2.4-4.4-2,0-5.19.4-8.79-.8.4-1.59,1.2-2.8,2-4.39,8.77-2,18.36-3.59,29.94-3.59h0Zm-9.19,4.79c-1.59.4-2.8,1.59-2.4,3.19.8,1.2.8,2,2,2.8.4,1.2.4,2,0,2.4,0,.8,0,2,.4,3.59.4,1.2.8,2.4,2.8,2s2.4-1.6,2.79-2.8c.4-.8.4-2.8.8-3.19.4-.4.4-1.6,0-2.8-.8-.8-2.8-4-3.59-4.39-.4-.8-1.6-1.2-2.8-.8h0Zm230.05-17.17c-9.99,0-18.37,1.2-25.16,2.8l-.4-.4c-.41-1.59-1.21-2.4-2.4-4-1.59-2-4.39-4.79-5.99-7.19-1.2-1.59-2-4.39-3.19-8.39-1.59-4-3.19-9.58-4-11.18-.8-2.4-2.8-3.59-4.39-4.4-2-.8-2.8-1.59-3.6-2,3.19-5.59,7.59-12.38,13.58-17.97.4.4.8.4.8.4,1.59.4,5.98,3.59,7.58,2.8,1.6-.8,4.39-2.4,5.99-3.19,2.24-.86,4.51-1.66,6.79-2.4,2-.4,3.6-.8,4.39,0,1.21,1.2,4,1.59,5.19.8,1.6-1.2,4.4-2,6.79-1.6h3.19c.41.4,1.6.4,2.4.4.8.4,2,2,3.6,2,1.2,0,2.79.4,2,1.59-.41,1.6-1.6,2.4-3.2,2.8-.8.4-2.8.4-4.39,1.2-1.2.8-3.19,2.4-3.6,3.59-1.2,1.2-1.2,2.8,0,3.59s3.19,1.2,4.79,1.59,3.19.4,4.79,1.2c1.2,1.2,2.8-.4,3.6,1.59.4,2,.4,2.8.79,4,.41.8,1.21,2,2.4,1.59,1.59-.4,2.39-1.2,3.19-3.19.8-2,1.59-4,2.39-5.19.41-1.2.8-2,.41-3.59,0-1.2-.41-1.6-1.6-2.4-.8-.8-1.2-2-1.6-3.19-.4-1.6,1.21-2,2-2,.8-.8,2.4,0,4.4.4,2,.8,2.8,1.2,3.59,2.4.8,1.59,1.6,2,2,3.59.41,1.6,1.21,3.2,1.6,3.59.8.4,1.6.8,3.19.4.8-.4,0,0,.8,0,1.2-.4,1.6-.4,2,.4,1.2.8,1.6,1.2,2,4,0,2.8-.4,3.59-.8,4.4-1.2.8-2,1.2-2.79,1.2s-1.6,0-2,.4c-.8,0-1.21,1.2-.8,2,0,.8,2,5.19,2,6.39,0,1.59.4,3.59-2,3.59-2,0-5.2.4-6.79.8-2.4.8-4.79,3.59-6.4,5.19-.79,1.6-.79,2-1.59,2.8-.41,1.2-1.2,2.4-2,2.8-1.2.4-2.39,1.2-3.19,1.59-.41.8-.8,1.2-2.4.8-1.2-.4-2.79-1.59-4.79-.8-.4,0-2.39,3.19-4,4.79-1.59-.39-3.19-.39-5.18-.39h0Zm37.94,31.15c5.99,12.78,9.19,25.96,10.39,41.94-5.99,7.19-12.78,13.58-19.18,18.37-.4-2-1.59-3.19-2.39-4.39-1.2-1.6-2.39-2.4-3.6-2.8-1.46-.96-2.57-2.36-3.19-4-1.59-1.2-3.19-4.79-4-6.39-.4-2-1.59-3.59-1.59-6.39-.41-2.51-.41-5.08,0-7.59.8-2.79,2-6.39,2.39-6.79.8-1.2,2.8-3.59,3.19-4.4.41-1.2,1.2-3.19.41-4.4-.41-.8-1.6-3.19-3.19-3.59-1.21-.4-2-.4-3.6-.8-.8-.4-3.6-1.6-4.4-2.8-.79-.4-2-1.6-2.79-2.4-1.21-1.2-2.8-2.8-4-2.8-1.6-.4-2.8-.8-4.4-1.2-2-.8-3.59-1.2-5.59-2.8-1.2-1.2-2-1.59-3.19-1.59-1.6,0-2.4-1.59-3.6-2.8-.8-.8-1.2-.8-2.8-2.8q-.8-2-1.6-3.59c-.42-1.2-1.1-2.29-2-3.19,6-.8,11.99-1.6,19.18-1.6l-3.6,3.59c-.8.8-1.59,2-1.2,3.19,0,1.6.4,1.6.8,2.4.79.8,1.59,1.2,3.19,1.2.8-.4,2.39-.8,3.19-.8,1.2,0,2-.4,2.39.8.41,1.59.8,3.19,2,3.59,2,.4,2.8.4,3.2.4.4.4,1.2.8,1.59,1.59,1.21,1.59,2.4,3.59,3.2,4.79.79.8,2,1.59,2.79,1.59,1.21.4,1.6.4,2,.4.8,0,2,0,2.8.4.4.4,1.2.8,2,1.2.4.4,1.2,1.2,1.6-.4.79-.8,1.2-2.8,2.39-4,1.6-.8,2-1.59,3.6-1.59s4-.4,5.19,0c.81,0,2.01,0,2.41.41h0Zm-4.39,71.89c10.79-7.59,18.37-15.58,23.16-20.77l27.56,8.79c0,.4-.41.8-.41.8,0,1.2.41,2.4-1.2,4.79-1.2,2.8-3.19,4.79-4.39,5.19-.8.4-2.8.8-4.4,2.4-1.59,1.2-4.39,2.8-5.59,5.99-1.2,1.2-2.8,5.59-4.79,7.59-2,1.59-4,3.59-5.99,4.39-2,.8-2.8,1.2-5.59,1.2-2.39,0-3.19,1.2-4,2.4-.4.8-.79.4-1.59,1.59-1.6,1.2-2.4,1.6-3.6,2.8-1.2.4-2.39,1.6-3.19,2.8-.8,2-2,4-2.39,5.99-.8,1.2-2,3.19-2.8,4.39-.8.8-2.8,2-3.6,2.4-.4.8-.8,1.2-1.2,2.4-.41,1.2-.41,2.4-2,2.8-1.2.4-1.6,1.2-2,1.59-.41.8-.8,1.59-1.6,1.2-1.2-.4-1.59-1.2-2-3.19-.4-2-1.59-6.39-1.59-8.39,0-1.59,0-3.19.79-5.59,1.21-2,1.6-3.19,1.6-5.19.4-2,.4-2.4,0-4-.4-1.2-.8-1.59-.4-4.79,0-1.2,1.59-4,2.39-5.19v-.4c0-1.2,1.2-2.8,1.6-4,.79-2,2-3.59,2.39-4.79s.4-1.59.8-2c1.2-.8,2.4-2,4-3.19h0Zm-79.88-159.36c-5.27,4.53-9.73,9.94-13.18,15.98h-.8c-1.6,0-2.8-.4-5.59.4-1.2.4-3.19.8-4.79,1.2-1.2.4-2,.8-2.79.8-.8-.4-.41-1.6-.41-2,.41-.8,1.6-1.6,0-2.4-1.2-.4-1.59-1.2-1.59-2.4.4-.8,1.2-2.8,2.79-3.59.8-1.2,2.4-3.59,3.2-4.39,1.59-.8,2.8-2.4,3.59-2.4.8.8,2.8-.8,4-1.2,1.6-.4,4-1.2,5.99-1.2,2.4,0,4,0,6.4.4.79,0,1.59.39,3.19.79Z"/><path class="cls-1" d="m438.59,85.93c2-1.59,6.78-4.79,14.78-6.39-27.56-8.79-58.31-8.79-86.67,0,7.99,1.6,13.18,4.79,15.57,6.39,8.79-2.4,17.97-4.4,27.96-4.4s18.77,2,28.36,4.4h0Zm-69.09,246.82c.4,2.8,3.19,9.19,9.98,16.38,20.37,4.4,41.54,4.4,61.51,0,7.19-7.19,9.18-13.58,9.99-16.38-13.98-.4-28.35-3.19-40.74-10.78-12.38,7.59-26.76,10.39-40.73,10.78Zm92.25-1.2c-.41,2.8-3.19,7.99-8.38,13.98,27.96-9.18,52.71-27.16,69.89-50.72-7.2,3.19-13.19,4-15.98,4-5.59,7.19-11.58,13.98-19.97,19.97-7.99,5.59-16.38,9.58-25.57,12.77h0Zm50.32-43.13c2.8.4,9.99,0,18.77-4.4,9.98-18.03,16.36-37.84,18.77-58.31-4.4-8.79-9.59-13.18-12.38-14.38-4.79,13.18-12.39,25.96-22.77,35.15,3.19,13.98,1.59,28.35-2.4,41.93Zm27.56-88.27c2,1.2,6.39,5.19,10.38,12.38,0-29.56-9.18-58.31-26.75-82.28.79,7.99,0,13.58-1.21,16.37,5.2,7.99,9.99,15.98,13.19,25.56,2.79,9.19,3.59,18.38,4.39,27.96h0Zm-25.57-61.11c1.2-2.4,2.8-9.19,1.2-18.77-13.58-15.18-30.74-27.96-49.52-35.94-9.59,1.2-15.98,4.79-17.57,6.79,10.79,8.39,20.37,19.97,26.37,33.15,13.98,1.19,27.95,7.18,39.53,14.77h0Zm-103.84-76.28c82.67,0,149.77,67.09,149.77,149.77s-67.09,149.76-149.77,149.76c-41.9.09-81.91-17.44-110.23-48.32,2.4-2.8,4.4-5.19,5.99-7.99,16.78,17.97,37.55,32.35,60.71,39.54-5.2-5.99-7.2-11.18-8.39-13.98-8.78-3.19-17.17-7.19-25.16-12.78-7.99-5.99-14.37-12.78-20.36-19.97h-.41c2-3.59,4.4-7.19,6.4-11.18.4,1.2,1.2,2.4,1.2,3.2,13.18,17.17,23.57,24.76,43.93,31.55,17.57.8,31.56-5.19,40.33-10.39v-37.94c-9.88-4.11-19.26-9.33-27.96-15.58-10.38-7.59-18.37-15.58-22.77-20.77l-17.57,5.19c.8-4.39,2-8.79,2.39-13.18l11.19-4c.4-7.19,2.39-17.97,6.39-30.75,4.39-12.78,9.58-22.36,13.18-28.75l-21.97-29.95c-8.72.46-17.27,2.63-25.16,6.39-1.6-3.59-3.6-6.39-5.59-9.58,9.18-4.79,19.17-7.99,29.16-8.79,1.59-3.19,3.19-5.99,5.19-9.19,1.59.4,2,.8,3.59,1.2,3.19.8,3.6,2,5.19,3.19.41.4,1.21.8,1.6,1.2-1.53,2.62-3,5.29-4.39,7.99l22.36,30.75c1.6-.4,3.6-.8,5.99-1.2.8,1.2.8,2,1.2,4.79q.41,2.4,1.2,4.4c.41.4.41.8.41,1.2q.4,0,.8.4c.4,0,.4.4.79.4-3.19.4-6.39,1.59-9.18,2-11.18,18.77-16.37,35.15-18.77,57.11,14.38,16.37,28.76,26.76,48.73,35.15,11.19-5.19,20.37-10.38,29.15-16.77v1.6c.41,2.8,1.21,6.79,1.21,8.79s-.41,3.19-.8,4.39c-9.18,6.39-17.57,9.99-23.16,12.38v37.94c8.79,5.19,22.76,11.18,39.94,10.39,19.97-6.79,31.15-14.38,43.93-31.55,5.99-16.38,4.39-31.56,2-41.94l-7.99-2.4c0-2,0-4.4.4-6.39,0-2,1.6-3.59,2.8-5.19v-.4l8.79,3.19c7.58-7.19,17.97-18.77,22.36-35.15-.4-21.17-4.39-33.95-16.78-51.52-13.58-10.78-28.35-13.98-38.34-14.78l-22.77,29.95c3.6,5.59,7.99,14.38,11.98,24.76h-.8c-1.59.4-3.19,0-5.19-.8-2-.8-3.19-1.59-5.99-2.8-.8-.4-1.59-.8-2.8-.8-2.39-5.19-4.79-9.99-7.99-15.18-8.79-2-18.37-3.59-29.95-3.59h-1.59c.79-1.59,1.2-2.4,1.59-2.8,1.2-1.2,2.8-4.39,2.8-5.19.4-.8,1.2-1.59,2-3.59l.4-.4c11.19.4,19.97,2,25.96,3.59l21.97-30.75c-3.99-9.19-11.58-22.77-26.36-31.95-19.97-6.39-33.54-6.39-53.92,0-3.19,1.6-5.59,3.59-8.38,5.99-.8-.4-2.8-1.6-3.6-1.6-1.2-.8-2.8-1.2-4.79-1.2-.4-.4-1.59-.8-2.39-.8,2.39-2.8,5.59-5.59,8.79-7.99-2.4-2-7.99-5.59-17.57-6.79-18.77,7.99-35.15,19.57-49.13,34.74-1.59-2.8-3.59-5.19-5.99-7.59,27.15-29.96,66.29-48.73,110.22-48.73h0Z"/><path class="cls-1" d="m464.14,194.96c-.4-1.2-.8-2.8-1.2-4,.8.4,2,.4,2.8,1.2,1.2,1.59,2.39,2,4,2.8.8.8,2,1.6,2.8,2,.4,1.2,2,2,2.8,4,.79,2.4.79,4.39,1.2,5.59.4.8,2,2.79,2.39,4.39.8.8,2,2.8,4,3.19,1.6.4,2.8,1.2,4,1.2.41.4,1.6.8,2,.8.8,0,1.6.4,2.8.8.8.4,5.59,2,6.39,2.8,1.21.8,3.6,2,3.6,4.4.4,1.59,0,3.59-.8,5.19-.4.8-2,3.59-3.19,5.19l-27.16-8.79c-.4-7.19-2-17.98-6.4-30.76h0ZM107.89,109.89c1.6-1.2,2.8-.4,3.19,0,.4,0,0,.8-.8,1.59-.4.8-1.2,2.8-2.4,3.59-.8.8-1.59,1.2-2.79,1.6-1.6.4-2-2.8-1.2-4,1.59-.4,1.59-1.2,2-1.6s.81-.79,2-1.19h0Zm336.28,199.69c-1.2.4-2.8,1.2-2.8,2.4-.4.8-.4,1.2.8,2s2.4,1.2,3.6,1.59c2,1.2,3.19,1.2,4,1.2.4,0,.8-.4.8-1.2s-.8-2.8-1.6-4.39c-.8-1.2-1.59-2-2.39-2-.81-.4-1.22-.4-2.41.4h0Zm-90.66-25.96c1.6.4,2,.4,2.4.8.8.4,1.59,0,.8-1.6-.8-1.59-1.6-5.99-2.8-7.59-.41-1.2-1.2-3.59-2.8-2.4-2,.8-2.8.4-4.39.4-1.6-.4-2.8,0-2,.8.4,1.2.8,1.59,2,1.59,1.2.4,1.59.4,2.39,1.6.8.8,1.6,1.59,1.6,2.8,0,2-1.2,3.19.4,3.19.8,0,1.2-.4,2.4.4h0Zm-.79,6.79c.4,1.2.79,6.79.79,8.39,0,.8.41,2.4-.4,3.59-.8,1.59-1.6,2.8-.4,3.59.79.8,1.2.4,2.39-.4.8-1.2,1.2-2,2-2.4,1.2-.8,1.2-2.4.8-3.59,0-1.59-.41-4.39,0-5.19.4-1.59.4-3.2-.41-3.59-1.2-.4-1.59-1.6-2-2.4-.4-1.2-1.2-1.6-2-1.2-1.2,0-1.2.8-.79,3.19h0Z"/></g></svg>