<?xml version="1.0" encoding="UTF-8"?><svg xmlns="http://www.w3.org/2000/svg" viewBox="0 0 600 600"><defs><style>.cls-1{fill:#939393;}.cls-2{fill:#05589c;}.cls-3{fill:#28282a;}</style></defs><g id="Layer_1" image-rendering="optimizeQuality" shape-rendering="geometricPrecision" text-rendering="geometricPrecision"><path id="path24" class="cls-2" d="m102.25,219.08c-2.74-.04-5.46-.44-8.08-1.2-2.75-.74-5.3-2.07-7.49-3.89-2.32-2.07-4.16-4.63-5.39-7.49-1.54-3.69-2.25-7.68-2.1-11.68v-45.21c.02-3.18.63-6.33,1.8-9.28,2.08-5.67,6.42-10.22,11.98-12.57,5.86-2.35,12.4-2.35,18.26,0,2.72,1.19,5.16,2.92,7.19,5.09,2.09,2.25,3.72,4.9,4.79,7.78,1.21,3.15,1.81,6.5,1.8,9.88v5.39c0,.66-.54,1.2-1.2,1.2h-13.47c-.66,0-1.2-.54-1.2-1.2v-4.49c.07-2.37-.67-4.69-2.1-6.59-1.22-1.76-3.25-2.77-5.39-2.69-2.25-.25-4.46.79-5.69,2.69-1.11,2.44-1.63,5.11-1.5,7.78v41.62c-.13,2.29.39,4.57,1.5,6.59,1.31,1.79,3.5,2.71,5.69,2.4h2.69l2.4-1.5c.8-.74,1.42-1.67,1.8-2.69.49-1.44.69-2.97.6-4.49v-4.49c0-.66.54-1.2,1.2-1.2h13.17c.66,0,1.2.54,1.2,1.2v5.69c-.04,6.12-2.39,12.01-6.59,16.47-2.06,2.13-4.5,3.85-7.19,5.09-2.73,1.22-5.69,1.83-8.68,1.8h0Z"/><path id="path26" class="cls-2" d="m157.93,219.08c-2.86,0-5.7-.51-8.38-1.5-2.88-1.08-5.53-2.7-7.78-4.79-2.32-2.19-4.15-4.84-5.39-7.78-1.48-3.5-2.2-7.28-2.1-11.08v-43.11c-.05-3.7.66-7.37,2.1-10.78,1.24-2.94,3.07-5.59,5.39-7.78,2.26-2.09,4.9-3.71,7.78-4.79,5.5-2.1,11.57-2.1,17.07,0,2.88,1.08,5.53,2.7,7.78,4.79,2.32,2.19,4.15,4.84,5.39,7.78,1.43,3.41,2.14,7.08,2.1,10.78v43.41c.1,3.8-.62,7.58-2.1,11.08-1.24,2.94-3.07,5.59-5.39,7.78-2.26,2.09-4.9,3.71-7.78,4.79-2.8.92-5.74,1.32-8.68,1.2h0Zm0-77.25c-4.29-.22-7.95,3.09-8.17,7.38-.03.54,0,1.07.08,1.6v43.41c-.2,2.44.67,4.85,2.4,6.59,3.36,2.88,8.32,2.88,11.68,0,1.72-1.74,2.6-4.15,2.4-6.59v-43.41c.16-2.43-.71-4.83-2.4-6.59-1.64-1.46-3.79-2.21-5.99-2.1v-.3Z"/><path id="path28" class="cls-2" d="m239.37,218.48h-12.28c-.56.02-1.06-.36-1.2-.9l-17.37-45.21c-.34-.36-.91-.38-1.27-.04-.1.09-.18.21-.23.34v44.31c0,.66-.54,1.2-1.2,1.2h-13.47c-.66,0-1.2-.54-1.2-1.2v-88.92c0-.66.54-1.2,1.2-1.2h12.57c.56-.02,1.06.36,1.2.9l17.07,45.21c.34.36.91.38,1.27.04.1-.09.18-.21.23-.34v-44.61c0-.66.54-1.2,1.2-1.2h13.17c.66,0,1.2.54,1.2,1.2v88.92c.18.64-.19,1.3-.83,1.48-.02,0-.05.01-.07.02h0Z"/><path id="path30" class="cls-2" d="m314.52,218.48h-13.17c-.66,0-1.2-.54-1.2-1.2v-44.31c-.17-.46-.69-.7-1.16-.53-.13.05-.25.13-.34.23l-10.18,31.74-.9.6h-7.19l-.9-.6-9.88-31.74c-.34-.36-.91-.38-1.27-.04-.1.09-.18.21-.23.34v44.01c0,.66-.54,1.2-1.2,1.2h-13.17c-.66,0-1.2-.54-1.2-1.2v-88.92c0-.66.54-1.2,1.2-1.2h12.57c.56-.02,1.06.36,1.2.9l15.87,42.81c.27.41.83.53,1.25.25.1-.07.19-.15.25-.25l15.57-43.11c.14-.54.64-.92,1.2-.9h12.87c.66,0,1.2.54,1.2,1.2v88.92c.34.57.15,1.3-.42,1.64-.23.14-.51.19-.78.16h0Z"/><path id="path32" class="cls-2" d="m368.71,218.48h-39.82c-.66,0-1.2-.54-1.2-1.2v-89.22c0-.66.54-1.2,1.2-1.2h40.12c.66,0,1.2.54,1.2,1.2v12.87c0,.66-.54,1.2-1.2,1.2h-24.85c-.5,0-.9.4-.9.9h0v20.66c0,.5.4.9.9.9h21.26c.66,0,1.2.54,1.2,1.2v12.87c0,.66-.54,1.2-1.2,1.2h-21.26c-.5,0-.9.4-.9.9h0v20.66c0,.5.4.9.9.9h24.85c.66,0,1.2.54,1.2,1.2v13.47c.19.63-.16,1.3-.79,1.5-.23.07-.48.07-.7,0h0Z"/><path id="path34" class="cls-2" d="m398.35,218.48h-18.26c-.66,0-1.2-.54-1.2-1.2v-89.22c0-.66.54-1.2,1.2-1.2h19.46c3.9-.1,7.77.62,11.38,2.1,2.98,1.3,5.64,3.24,7.78,5.69,3.53,4.34,5.63,9.68,5.99,15.27.6,8.38-1.2,16.77-8.08,21.86h-.3c2.58,1.58,4.66,3.86,5.99,6.59,2.44,5.65,3.17,11.9,2.1,17.96-.48,5.38-2.57,10.49-5.99,14.67-4.19,4.79-11.08,7.49-20.06,7.49h0Zm-3.89-17.07c0,.5.4.9.9.9h3.89c2.06.08,4.11-.33,5.99-1.2,6.29-3.29,6.59-14.67,1.8-19.46l-.9-.9c-2.99-2.1-7.19-1.5-10.78-1.5-.5,0-.9.4-.9.9h0v21.26Zm0-37.43c0,.5.4.9.9.9h4.19c4.19,0,6.89-.9,8.38-2.99,3.1-5.19,2.99-11.69-.3-16.77-2.28-2.28-5.48-3.39-8.68-2.99h-3.89c-.5,0-.9.4-.9.9h0l.3,20.96Z"/><path id="path36" class="cls-2" d="m457.34,219.08c-2.86,0-5.7-.51-8.38-1.5-2.88-1.08-5.53-2.7-7.78-4.79-2.32-2.19-4.15-4.84-5.39-7.78-1.48-3.5-2.2-7.28-2.1-11.08v-43.11c-.05-3.7.66-7.37,2.1-10.78,1.24-2.94,3.07-5.59,5.39-7.78,2.26-2.09,4.9-3.71,7.78-4.79,5.5-2.1,11.57-2.1,17.07,0,2.88,1.08,5.53,2.7,7.78,4.79,2.32,2.19,4.15,4.84,5.39,7.78,1.43,3.41,2.14,7.08,2.1,10.78v43.41c.1,3.8-.62,7.58-2.1,11.08-1.24,2.94-3.07,5.59-5.39,7.78-2.26,2.09-4.9,3.71-7.78,4.79-2.8.92-5.74,1.32-8.68,1.2h0Zm0-77.25c-4.29-.22-7.95,3.09-8.17,7.38-.03.54,0,1.07.08,1.6v43.41c-.2,2.44.67,4.85,2.4,6.59,3.36,2.88,8.32,2.88,11.68,0,1.72-1.74,2.6-4.15,2.4-6.59v-43.41c.16-2.43-.71-4.83-2.4-6.59-1.64-1.46-3.79-2.21-5.99-2.1v-.3Z"/><path id="path38" class="cls-2" d="m534.28,218.48h-40.12c-.66,0-1.2-.54-1.2-1.2v-89.22c0-.66.54-1.2,1.2-1.2h13.17c.66,0,1.2.54,1.2,1.2v73.35c0,.5.4.9.9.9h24.85c.66,0,1.2.54,1.2,1.2v13.47c.17.64-.22,1.29-.86,1.46-.11.03-.22.04-.34.04h0Z"/><rect id="rect40" class="cls-2" x="545.36" y="164.59" width="29.64" height="16.14" rx=".3" ry=".3"/><rect id="rect42" class="cls-2" x="25" y="164.59" width="29.64" height="16.14" rx=".3" ry=".3"/><g id="type"><path class="cls-3" d="m71.75,513.01c-26.35,0-46.75-21.34-46.75-48.37s20.62-48.37,46.75-48.37c16.5,0,31.85,9.01,40.33,23.71l.23.47-12.83,8.3-.23-.71c-5.73-10.91-15.58-17.31-27.5-17.31-17.88,0-32.08,14.7-32.08,33.67s13.98,33.43,31.85,33.43c12.6,0,22.92-6.88,28.42-18.73l.23-.71,13.29,7.35-.23.71c-8.25,16.6-23.83,26.56-41.48,26.56Z"/><path class="cls-3" d="m150.58,459.42c-10.08,0-18.1,8.54-18.1,19.68s8.02,19.68,18.1,19.68,18.33-8.77,18.33-19.68-8.25-19.68-18.33-19.68Zm0,53.59c-18.33,0-32.54-14.94-32.54-33.91s14.21-33.91,32.54-33.91,32.77,14.94,32.77,33.91-14.67,33.91-32.77,33.91Z"/><path class="cls-3" d="m234.46,511.83v-36.75c0-10.67-5.04-16.36-14.21-16.36s-14.9,7.11-14.9,17.31v35.81h-14.44v-64.97h14.44v7.11c4.58-5.45,11-8.3,18.33-8.3,15.81,0,25.67,10.91,25.67,28.46v37.94h-14.67l-.23-.24Z"/><path class="cls-3" d="m289,513.01c-18.33,0-32.77-14.94-32.77-33.91s14.44-33.91,32.77-33.91c13.29,0,24.75,7.59,29.79,19.92l.23.71-13.06,5.69-.23-.71c-2.98-7.35-9.17-11.62-16.73-11.62-10.31,0-18.56,8.54-18.56,19.68s8.25,19.68,18.79,19.68c7.56,0,13.75-4.51,16.73-12.09l.23-.71,13.29,5.69-.23.71c-5.5,13.04-16.5,20.39-30.25,20.39v.47Z"/><path class="cls-3" d="m356.83,459.19c-10.54,0-18.79,8.77-18.79,19.92s8.25,20.16,18.79,20.16,18.79-8.77,18.79-20.16-8.25-19.92-18.79-19.92Zm-1.83,53.83c-15.35,0-31.4-12.57-31.4-33.91s16.27-33.91,31.4-33.91c7.56,0,14.9,3.08,19.71,8.3v-7.11h14.44v64.97h-14.44v-7.59c-4.81,5.69-12.15,8.77-19.94,8.77l.23.47Z"/><path class="cls-3" d="m429.71,513.01c-18.33,0-32.77-14.94-32.77-33.91s14.44-33.91,32.77-33.91c13.29,0,24.75,7.59,29.79,19.92l.23.71-13.06,5.69-.23-.71c-2.98-7.35-9.17-11.62-16.73-11.62-10.31,0-18.56,8.54-18.56,19.68s8.25,19.68,18.79,19.68c7.56,0,13.75-4.51,16.73-12.09l.23-.71,13.06,5.69-.23.71c-5.5,13.04-16.5,20.39-30.25,20.39l.23.47Z"/><path class="cls-3" d="m497.54,459.19c-10.54,0-18.79,8.77-18.79,19.92s8.25,20.16,18.79,20.16,18.79-8.77,18.79-20.16-8.25-19.92-18.79-19.92Zm-1.83,53.83c-15.35,0-31.4-12.57-31.4-33.91s16.27-33.91,31.4-33.91c7.56,0,14.9,3.08,19.71,8.3v-7.11h14.44v64.97h-14.44v-7.59c-4.81,5.69-12.15,8.77-19.94,8.77l.23.47Z"/><path class="cls-3" d="m547.27,511.83v-51.46h-10.31v-13.52h10.31v-2.61c0-20.16,6.19-26.56,25.9-26.56h1.83v13.99h-.69c-11.46,0-12.37,1.9-12.37,12.8v2.61h13.06v13.52h-13.06v51.46h-14.67v-.24Z"/></g><path class="cls-1" d="m306.25,266.8v47h44.17v12h-44.17v47.4h-12.51v-47.4h-44.17v-12h44.17v-47h12.51Z"/></g></svg>