<?xml version="1.0" encoding="UTF-8"?><svg xmlns="http://www.w3.org/2000/svg" viewBox="0 0 600 600"><defs><style>.cls-1{fill:#d5ba81;}.cls-2{fill:#28282a;}</style></defs><g id="Layer_1" image-rendering="optimizeQuality" shape-rendering="geometricPrecision" text-rendering="geometricPrecision"><g id="logo"><g id="type"><path class="cls-2" d="m71.75,542.58c-26.35,0-46.75-21.34-46.75-48.37s20.62-48.37,46.75-48.37c16.5,0,31.85,9.01,40.33,23.71l.23.47-12.83,8.3-.23-.71c-5.73-10.91-15.58-17.31-27.5-17.31-17.88,0-32.08,14.7-32.08,33.67s13.98,33.43,31.85,33.43c12.6,0,22.92-6.88,28.42-18.73l.23-.71,13.29,7.35-.23.71c-8.25,16.6-23.83,26.56-41.48,26.56Z"/><path class="cls-2" d="m150.58,488.99c-10.08,0-18.1,8.54-18.1,19.68s8.02,19.68,18.1,19.68,18.33-8.77,18.33-19.68-8.25-19.68-18.33-19.68Zm0,53.59c-18.33,0-32.54-14.94-32.54-33.91s14.21-33.91,32.54-33.91,32.77,14.94,32.77,33.91-14.67,33.91-32.77,33.91Z"/><path class="cls-2" d="m234.46,541.4v-36.75c0-10.67-5.04-16.36-14.21-16.36s-14.9,7.11-14.9,17.31v35.81h-14.44v-64.97h14.44v7.11c4.58-5.45,11-8.3,18.33-8.3,15.81,0,25.67,10.91,25.67,28.46v37.94h-14.67l-.23-.24Z"/><path class="cls-2" d="m289,542.58c-18.33,0-32.77-14.94-32.77-33.91s14.44-33.91,32.77-33.91c13.29,0,24.75,7.59,29.79,19.92l.23.71-13.06,5.69-.23-.71c-2.98-7.35-9.17-11.62-16.73-11.62-10.31,0-18.56,8.54-18.56,19.68s8.25,19.68,18.79,19.68c7.56,0,13.75-4.51,16.73-12.09l.23-.71,13.29,5.69-.23.71c-5.5,13.04-16.5,20.39-30.25,20.39v.47Z"/><path class="cls-2" d="m356.83,488.75c-10.54,0-18.79,8.77-18.79,19.92s8.25,20.16,18.79,20.16,18.79-8.77,18.79-20.16-8.25-19.92-18.79-19.92Zm-1.83,53.83c-15.35,0-31.4-12.57-31.4-33.91s16.27-33.91,31.4-33.91c7.56,0,14.9,3.08,19.71,8.3v-7.11h14.44v64.97h-14.44v-7.59c-4.81,5.69-12.15,8.77-19.94,8.77l.23.47Z"/><path class="cls-2" d="m429.71,542.58c-18.33,0-32.77-14.94-32.77-33.91s14.44-33.91,32.77-33.91c13.29,0,24.75,7.59,29.79,19.92l.23.71-13.06,5.69-.23-.71c-2.98-7.35-9.17-11.62-16.73-11.62-10.31,0-18.56,8.54-18.56,19.68s8.25,19.68,18.79,19.68c7.56,0,13.75-4.51,16.73-12.09l.23-.71,13.06,5.69-.23.71c-5.5,13.04-16.5,20.39-30.25,20.39l.23.47Z"/><path class="cls-2" d="m497.54,488.75c-10.54,0-18.79,8.77-18.79,19.92s8.25,20.16,18.79,20.16,18.79-8.77,18.79-20.16-8.25-19.92-18.79-19.92Zm-1.83,53.83c-15.35,0-31.4-12.57-31.4-33.91s16.27-33.91,31.4-33.91c7.56,0,14.9,3.08,19.71,8.3v-7.11h14.44v64.97h-14.44v-7.59c-4.81,5.69-12.15,8.77-19.94,8.77l.23.47Z"/><path class="cls-2" d="m547.27,541.4v-51.46h-10.31v-13.52h10.31v-2.61c0-20.16,6.19-26.56,25.9-26.56h1.83v13.99h-.69c-11.46,0-12.37,1.9-12.37,12.8v2.61h13.06v13.52h-13.06v51.46h-14.67v-.24Z"/></g><g id="mark"><path class="cls-1" d="m299.08,124.29l-7.1-32.96,7.1-33.2c.23-.95,1.6-.95,1.83,0l7.1,33.2-7.1,32.96c-.23.95-1.6.95-1.83,0Z"/><path class="cls-1" d="m283.04,125.71l-11.92-31.54,2.29-33.91c0-.95,1.38-1.19,1.83-.24l11.92,31.54-2.06,33.91c0,.95-1.38,1.19-1.83.24h-.23Z"/><path class="cls-1" d="m267.46,129.51l-16.5-29.4-2.75-33.67c0-.95,1.15-1.42,1.6-.47l16.5,29.4,2.98,33.67c0,.95-1.15,1.42-1.6.47h-.23Z"/><path class="cls-1" d="m252.56,135.91l-20.62-26.32-7.79-32.96c-.23-.95.92-1.66,1.6-.71l20.62,26.32,7.79,32.96c.23.95-.92,1.66-1.6.71Z"/><path class="cls-1" d="m239.04,144.44l-24.29-22.76-12.6-31.3c-.46-.95.69-1.66,1.37-1.19l24.29,22.76,12.6,31.3c.46.95-.69,1.66-1.37,1.19Z"/><path class="cls-1" d="m226.67,155.12l-27.27-18.73-16.96-28.93c-.46-.95.46-1.9,1.38-1.19l27.27,18.73,16.96,28.93c.46.95-.46,1.9-1.38,1.19Z"/><path class="cls-1" d="m216.12,167.68l-29.79-14.23-21.08-25.85c-.69-.71.23-1.9,1.15-1.42l29.79,14.23,21.08,25.85c.69.71-.23,1.9-1.15,1.42Z"/><path class="cls-1" d="m207.42,181.67l-31.4-9.25-24.75-22.29c-.69-.71,0-1.9.92-1.66l31.4,9.25,24.75,22.29c.69.71,0,1.9-.92,1.66Z"/><path class="cls-1" d="m201,196.85l-32.54-4.27-27.73-18.26c-.92-.47-.46-1.9.69-1.66l32.54,4.27,27.73,18.02c.92.47.46,1.9-.69,1.66v.24Z"/><path class="cls-1" d="m196.87,212.74l-32.77.95-30.02-13.52c-.92-.47-.69-1.66.23-1.9l32.77-.95,30.02,13.52c.92.47.69,1.66-.23,1.9Z"/><path class="cls-1" d="m195.27,229.34l-32.31,6.17-31.63-8.77c-.92-.24-.92-1.66,0-1.9l32.31-6.17,31.62,8.54c.92.24.92,1.66,0,1.9v.24Z"/><path class="cls-1" d="m195.96,245.93l-30.94,11.14-32.54-3.56c-.92-.24-1.15-1.42-.23-1.9l30.94-11.14,32.54,3.56c.92.24,1.15,1.42.23,1.9Z"/><path class="cls-1" d="m199.17,262.06l-28.87,15.89-32.77,1.66c-.92,0-1.38-1.19-.46-1.9l28.87-15.89,32.77-1.66c.92,0,1.37,1.19.46,1.9Z"/><path class="cls-1" d="m204.67,277.71l-26.35,20.39-32.08,6.88c-.92.24-1.6-1.19-.69-1.66l26.35-20.16,32.08-6.88c.92-.24,1.6,1.19.69,1.66v-.24Z"/><path class="cls-1" d="m212.46,292.17l-22.92,24.19-30.71,11.86c-.92.24-1.6-.95-.92-1.66l22.92-24.19,30.71-11.86c.92-.24,1.6.95.92,1.66Z"/><path class="cls-1" d="m222.31,305.45l-19.02,27.51-28.65,16.6c-.92.47-1.83-.47-1.15-1.42l19.25-27.51,28.65-16.6c.92-.47,1.83.47,1.15,1.42h-.23Z"/><path class="cls-1" d="m234,316.84l-14.9,30.12-25.9,20.87c-.69.71-1.83-.24-1.38-1.19l14.9-30.12,25.9-20.87c.69-.71,1.83.24,1.38,1.19Z"/><path class="cls-1" d="m247.06,326.32l-10.08,32.25-22.46,24.66c-.69.71-1.83,0-1.6-.95l10.31-32.25,22.46-24.66c.69-.71,1.83,0,1.6.95h-.23Z"/><path class="cls-1" d="m261.5,333.43l-5.27,33.43-18.56,27.98c-.46.71-1.83.24-1.6-.71l5.27-33.43,18.56-27.98c.46-.71,1.83-.24,1.6.71Z"/><path class="cls-1" d="m276.85,338.41l-.23,33.91-14.21,30.59c-.46.95-1.83.47-1.83-.47l.46-33.91,14.21-30.59c.46-.95,1.83-.47,1.83.47h-.23Z"/><path class="cls-1" d="m292.9,340.79l4.58,33.43-9.62,32.49c-.23.95-1.6.95-1.83-.24l-4.58-33.43,9.62-32.49c.23-.95,1.6-.95,1.83.24Z"/><path class="cls-1" d="m308.71,340.55l9.63,32.49-4.58,33.43c-.23.95-1.37,1.19-1.83.24l-9.63-32.49,4.58-33.43c.23-.95,1.37-1.19,1.83-.24Z"/><path class="cls-1" d="m324.75,337.94l14.21,30.59.23,33.91c0,.95-1.37,1.42-1.83.47l-14.21-30.59-.46-33.91c0-.95,1.37-1.42,1.83-.47h.23Z"/><path class="cls-1" d="m339.88,332.72l18.56,27.98,5.27,33.43c.23.95-1.15,1.42-1.6.71l-18.56-27.98-5.27-33.43c-.23-.95,1.15-1.42,1.6-.71Z"/><path class="cls-1" d="m354.31,325.37l22.46,24.66,10.08,32.25c.23.95-.92,1.66-1.6.95l-22.46-24.66-10.31-32.25c-.23-.95.92-1.66,1.6-.95h.23Z"/><path class="cls-1" d="m367.15,315.65l25.9,20.87,14.9,30.12c.46.95-.69,1.66-1.37,1.19l-25.9-20.87-14.9-30.12c-.46-.95.69-1.66,1.37-1.19Z"/><path class="cls-1" d="m378.6,304.03l28.65,16.6,19.02,27.51c.46.71-.23,1.9-1.15,1.42l-28.65-16.6-19.02-27.51c-.46-.71.23-1.9,1.15-1.42Z"/><path class="cls-1" d="m388.23,290.75l30.71,11.86,22.92,24.19c.69.71,0,1.9-.92,1.66l-30.71-11.86-22.92-24.19c-.69-.71,0-1.9.92-1.66Z"/><path class="cls-1" d="m395.79,276.05l32.08,6.88,26.35,20.39c.69.71.23,1.9-.69,1.66l-32.08-6.88-26.35-20.16c-.69-.71-.23-1.9.69-1.66v-.24Z"/><path class="cls-1" d="m401.06,260.4l32.77,1.66,28.88,15.89c.92.47.46,1.9-.46,1.9l-32.77-1.66-28.87-15.89c-.92-.47-.46-1.9.46-1.9Z"/><path class="cls-1" d="m404.04,244.04l32.54-3.56,30.94,11.14c.92.24.69,1.66-.23,1.9l-32.54,3.56-30.94-11.14c-.92-.24-.69-1.66.23-1.9Z"/><path class="cls-1" d="m404.5,227.44l31.63-8.77,32.31,6.17c.92.24.92,1.66,0,1.9l-31.63,8.54-32.31-6.17c-.92-.24-.92-1.66,0-1.9v.24Z"/><path class="cls-1" d="m402.67,211.08l30.02-13.52,32.77.95c.92,0,1.15,1.42.23,1.9l-30.02,13.52-32.77-.95c-.92,0-1.15-1.42-.23-1.9Z"/><path class="cls-1" d="m398.31,195.19l27.73-18.26,32.54-4.27c.92,0,1.37,1.19.69,1.66l-27.73,18.02-32.54,4.27c-.92,0-1.37-1.19-.69-1.66v.24Z"/><path class="cls-1" d="m391.44,180.01l24.75-22.29,31.4-9.25c.92-.24,1.6.95.92,1.66l-24.75,22.29-31.4,9.25c-.92.24-1.6-.95-.92-1.66Z"/><path class="cls-1" d="m382.73,166.26l21.08-25.85,29.79-14.23c.92-.47,1.6.71,1.15,1.42l-21.08,25.85-29.79,14.23c-.92.47-1.6-.71-1.15-1.42Z"/><path class="cls-1" d="m371.96,153.93l16.96-28.93,27.27-18.73c.92-.47,1.83.47,1.38,1.19l-16.96,28.93-27.27,18.73c-.92.47-1.83-.47-1.38-1.19Z"/><path class="cls-1" d="m359.58,143.5l12.6-31.3,24.29-22.76c.69-.71,1.83.24,1.38,1.19l-12.6,31.3-24.29,22.76c-.69.71-1.83-.24-1.37-1.19Z"/><path class="cls-1" d="m345.6,134.96l7.79-32.96,20.63-26.32c.69-.71,1.83-.24,1.6.71l-7.79,32.96-20.63,26.32c-.69.71-1.83.24-1.6-.71Z"/><path class="cls-1" d="m330.71,129.03l2.75-33.67,16.5-29.4c.46-.95,1.83-.47,1.6.47l-2.98,33.67-16.5,29.4c-.46.95-1.83.47-1.6-.47h.23Z"/><path class="cls-1" d="m315.12,125.24l-2.29-33.91,11.92-31.54c.46-.95,1.6-.71,1.83.24l2.06,33.91-11.92,31.54c-.46.95-1.6.71-1.83-.24h.23Z"/></g></g></g></svg>