<?xml version="1.0" encoding="UTF-8"?><svg xmlns="http://www.w3.org/2000/svg" viewBox="0 0 600 600"><defs><style>.cls-1{fill:#faa619;}.cls-2{fill:#005199;}.cls-3{fill:#eb1c23;}.cls-4{fill:#fff;}.cls-5{fill:#ffcf00;}.cls-6{fill:#8cc53d;}.cls-7{fill:#11b5e8;}.cls-8{fill:#458c33;}</style></defs><g id="Layer_1" image-rendering="optimizeQuality" shape-rendering="geometricPrecision" text-rendering="geometricPrecision"><path id="path14775" class="cls-4" d="m506.32,99.59c-2.32-1.22-5.17-2.68-8.47-4.28-12.16-5.95-30.56-14.15-54.29-21.94-1.52-15.07-4.52-31.34-4.52-31.34l-.06.03v-.03c-33.12-11.21-79.71-22.03-138.99-22.03s-105.87,10.82-138.99,22.03v.03l-.03-.03s-3,16.26-4.52,31.34c-23.72,7.79-42.16,15.99-54.29,21.94-3.3,1.61-6.15,3.06-8.47,4.28-7.94,41.98-8.09,92.88-8.09,92.88l.33,15.01c2.23,101.83,34.49,192.36,95.91,269.03,21.82,27.26,58.75,66.57,110.72,99l7.43,4.49,7.43-4.49c52-32.44,88.92-71.74,110.75-99,61.42-76.67,93.68-167.2,95.91-269.03l.33-15.01s-.15-50.9-8.09-92.88"/><path id="path14777" class="cls-1" d="m300.02,511.11l-6.99,4.79c-1.19.83-2.29.03-1.87-1.4l2.32-8.24-6.63-5.23c-1.16-.92-.74-2.23.71-2.29l8.41-.27,2.88-8.06c.51-1.37,1.84-1.37,2.35,0l2.88,8.06,8.41.27c1.46.06,1.87,1.37.71,2.29l-6.63,5.23,2.32,8.24c.42,1.43-.68,2.23-1.9,1.4l-6.99-4.79Z"/><path id="path14779" class="cls-1" d="m333.31,491.55l-6.48,4.43c-1.13.77-2.17.03-1.78-1.28l2.17-7.67-6.18-4.88c-1.07-.86-.68-2.08.68-2.11l7.85-.27,2.65-7.49c.48-1.28,1.72-1.28,2.2,0l2.65,7.49,7.85.27c1.34.03,1.75,1.25.68,2.11l-6.18,4.88,2.17,7.67c.36,1.31-.62,2.05-1.75,1.28l-6.51-4.43Z"/><path id="path14781" class="cls-1" d="m358.94,468.6l-6.04,4.13c-1.04.74-1.99.03-1.64-1.19l2.02-7.11-5.77-4.55c-.98-.8-.62-1.93.65-1.99l7.28-.24,2.47-6.96c.42-1.19,1.61-1.19,2.02,0l2.5,6.96,7.28.24c1.28.06,1.64,1.19.62,1.99l-5.74,4.55,1.99,7.11c.39,1.22-.59,1.93-1.61,1.19l-6.06-4.13Z"/><path id="path14783" class="cls-1" d="m380.56,445.71l-5.62,3.84c-.95.68-1.84.03-1.52-1.1l1.87-6.63-5.35-4.22c-.92-.74-.59-1.78.59-1.81l6.78-.24,2.29-6.48c.42-1.13,1.49-1.13,1.87,0l2.32,6.48,6.81.24c1.16.03,1.49,1.07.56,1.81l-5.32,4.22,1.87,6.63c.33,1.13-.56,1.78-1.55,1.1l-5.62-3.84Z"/><path id="path14785" class="cls-1" d="m399.38,422.85l-5.2,3.57c-.92.62-1.72.03-1.43-1.01l1.72-6.18-4.96-3.92c-.86-.68-.54-1.64.56-1.69l6.3-.21,2.14-6.04c.36-1.01,1.37-1.01,1.75,0l2.14,6.04,6.3.21c1.1.06,1.4,1.01.54,1.69l-4.94,3.92,1.72,6.18c.3,1.04-.51,1.64-1.43,1.01l-5.23-3.57Z"/><path id="path14787" class="cls-1" d="m415.49,400.01l-4.88,3.33c-.8.56-1.58.03-1.31-.98l1.61-5.71-4.61-3.66c-.8-.65-.51-1.55.51-1.58l5.86-.21,2.02-5.59c.33-.98,1.28-.98,1.61,0l2.02,5.59,5.86.21c1.01.03,1.31.92.51,1.58l-4.61,3.66,1.61,5.71c.27,1.01-.48,1.55-1.31.98l-4.88-3.33Z"/><path id="path14789" class="cls-1" d="m429.34,377.21l-4.52,3.09c-.77.54-1.49.03-1.22-.89l1.49-5.32-4.31-3.42c-.74-.59-.45-1.43.48-1.46l5.47-.18,1.84-5.23c.33-.89,1.19-.89,1.52,0l1.87,5.23,5.44.18c.95.03,1.22.86.48,1.46l-4.28,3.42,1.49,5.32c.27.92-.45,1.43-1.22.89l-4.52-3.09Z"/><path id="path14791" class="cls-1" d="m441.56,354.44l-4.19,2.88c-.71.51-1.37,0-1.16-.83l1.43-4.96-4.01-3.15c-.68-.56-.42-1.34.45-1.37l5.08-.18,1.72-4.85c.3-.83,1.1-.83,1.4,0l1.75,4.85,5.05.18c.89.03,1.13.8.45,1.37l-4.01,3.15,1.4,4.96c.24.83-.39,1.34-1.13.83l-4.22-2.88Z"/><path id="path14793" class="cls-1" d="m451.79,331.69l-3.89,2.68c-.68.45-1.31.03-1.07-.77l1.31-4.61-3.72-2.94c-.62-.54-.42-1.25.39-1.28l4.73-.18,1.61-4.49c.3-.77,1.04-.77,1.31,0l1.61,4.49,4.73.18c.8.03,1.04.74.42,1.28l-3.72,2.94,1.28,4.61c.24.8-.36,1.22-1.04.77l-3.92-2.68Z"/><path id="path14795" class="cls-1" d="m460.68,308.98l-3.63,2.47c-.62.45-1.19.03-.98-.71l1.22-4.28-3.48-2.74c-.56-.48-.36-1.16.39-1.19l4.4-.15,1.46-4.19c.27-.71.98-.71,1.25,0l1.49,4.19,4.4.15c.74.03.95.71.36,1.19l-3.45,2.74,1.22,4.28c.21.74-.36,1.16-1.01.71l-3.63-2.47Z"/><path id="path14797" class="cls-1" d="m467.9,286.26l-3.39,2.32c-.59.42-1.1,0-.92-.68l1.13-3.98-3.21-2.53c-.56-.45-.36-1.07.36-1.1l4.07-.15,1.4-3.89c.24-.68.89-.68,1.13,0l1.4,3.89,4.07.15c.71.03.89.65.33,1.1l-3.18,2.53,1.1,3.98c.21.68-.3,1.1-.89.68l-3.39-2.32Z"/><path id="path14799" class="cls-1" d="m473.76,263.58l-3.12,2.17c-.54.39-1.04.03-.86-.62l1.07-3.72-3.03-2.35c-.51-.42-.3-1.01.33-1.04l3.81-.12,1.31-3.63c.21-.62.83-.62,1.04,0l1.31,3.63,3.81.12c.62.03.83.62.3,1.04l-3,2.35,1.07,3.72c.18.65-.33,1.01-.86.62l-3.15-2.17Z"/><path id="path14801" class="cls-1" d="m478.22,240.93l-2.91,2.02c-.51.33-.98,0-.8-.59l.98-3.45-2.79-2.2c-.48-.39-.3-.92.3-.95l3.57-.09,1.16-3.39c.24-.59.8-.59,1.01,0l1.19,3.39,3.54.09c.59.03.77.56.3.95l-2.76,2.2.95,3.45c.18.59-.27.92-.8.59l-2.91-2.02Z"/><path id="path14803" class="cls-1" d="m481.79,218.3l-2.74,1.87c-.48.3-.89,0-.74-.56l.92-3.18-2.59-2.05c-.45-.39-.3-.86.3-.89l3.24-.12,1.13-3.12c.21-.54.71-.54.92,0l1.13,3.12,3.27.12c.56.03.74.51.27.89l-2.56,2.05.89,3.18c.15.56-.27.86-.74.56l-2.71-1.87Z"/><path id="path14805" class="cls-1" d="m484.02,195.68l-2.53,1.72c-.42.3-.83,0-.68-.51l.86-2.97-2.44-1.9c-.42-.33-.27-.8.27-.83l3.06-.09,1.04-2.91c.18-.51.65-.51.83,0l1.04,2.91,3.06.09c.54.03.68.51.27.83l-2.41,1.9.83,2.97c.18.51-.24.8-.68.51l-2.53-1.72Z"/><path id="path14807" class="cls-1" d="m484.97,173.08l-2.35,1.61c-.39.27-.77,0-.65-.48l.8-2.76-2.23-1.78c-.39-.33-.27-.71.24-.77l2.82-.09.98-2.71c.15-.48.62-.48.77,0l.98,2.71,2.82.09c.51.06.65.45.24.77l-2.23,1.78.8,2.76c.12.48-.24.74-.65.48l-2.35-1.61Z"/><path id="path14809" class="cls-1" d="m266.69,491.55l6.51,4.43c1.1.77,2.11.03,1.75-1.28l-2.17-7.67,6.18-4.88c1.07-.86.65-2.08-.68-2.11l-7.82-.27-2.68-7.49c-.48-1.28-1.72-1.28-2.2,0l-2.68,7.49-7.82.27c-1.34.03-1.75,1.25-.68,2.11l6.18,4.88-2.17,7.67c-.39,1.31.62,2.05,1.75,1.28l6.51-4.43Z"/><path id="path14811" class="cls-1" d="m241.03,468.6l6.04,4.13c1.07.74,2.02.03,1.66-1.19l-2.02-7.11,5.74-4.55c1.01-.8.65-1.93-.62-1.99l-7.28-.24-2.5-6.96c-.42-1.19-1.58-1.19-2.02,0l-2.47,6.96-7.31.24c-1.25.06-1.61,1.19-.62,1.99l5.77,4.55-2.02,7.11c-.36,1.22.59,1.93,1.64,1.19l6.03-4.13Z"/><path id="path14813" class="cls-1" d="m219.45,445.71l5.59,3.84c.98.68,1.87.03,1.55-1.1l-1.87-6.63,5.32-4.22c.92-.74.59-1.78-.56-1.81l-6.78-.24-2.29-6.48c-.42-1.13-1.49-1.13-1.9,0l-2.32,6.48-6.78.24c-1.16.03-1.52,1.07-.56,1.81l5.32,4.22-1.87,6.63c-.3,1.13.56,1.78,1.55,1.1l5.62-3.84Z"/><path id="path14815" class="cls-1" d="m200.6,422.85l5.23,3.57c.89.62,1.72.03,1.43-1.01l-1.75-6.18,4.96-3.92c.89-.68.56-1.64-.54-1.69l-6.3-.21-2.14-6.04c-.39-1.01-1.37-1.01-1.75,0l-2.17,6.04-6.27.21c-1.1.06-1.43,1.01-.56,1.69l4.96,3.92-1.72,6.18c-.33,1.04.51,1.64,1.43,1.01l5.2-3.57Z"/><path id="path14817" class="cls-1" d="m184.51,400.01l4.85,3.33c.86.56,1.61.03,1.31-.98l-1.61-5.71,4.64-3.66c.77-.65.51-1.55-.54-1.58l-5.86-.21-1.99-5.59c-.36-.98-1.28-.98-1.64,0l-1.99,5.59-5.86.21c-1.01.03-1.31.92-.51,1.58l4.61,3.66-1.61,5.71c-.3,1.01.48,1.55,1.31.98l4.88-3.33Z"/><path id="path14819" class="cls-1" d="m170.66,377.21l4.52,3.09c.77.54,1.49.03,1.22-.89l-1.49-5.32,4.31-3.42c.71-.59.45-1.43-.51-1.46l-5.44-.18-1.87-5.23c-.3-.89-1.19-.89-1.52,0l-1.84,5.23-5.47.18c-.92.03-1.22.86-.45,1.46l4.28,3.42-1.49,5.32c-.27.92.45,1.43,1.22.89l4.52-3.09Z"/><path id="path14821" class="cls-1" d="m158.41,354.44l4.19,2.88c.74.51,1.4,0,1.16-.83l-1.4-4.96,3.98-3.15c.71-.56.45-1.34-.42-1.37l-5.08-.18-1.72-4.85c-.3-.83-1.1-.83-1.4,0l-1.75,4.85-5.05.18c-.89.03-1.13.8-.45,1.37l3.98,3.15-1.37,4.96c-.27.83.39,1.34,1.13.83l4.19-2.88Z"/><path id="path14823" class="cls-1" d="m148.21,331.69l3.89,2.68c.68.45,1.28.03,1.07-.77l-1.31-4.61,3.72-2.94c.62-.54.42-1.25-.42-1.28l-4.7-.18-1.61-4.49c-.3-.77-1.04-.77-1.31,0l-1.64,4.49-4.7.18c-.83.03-1.07.74-.42,1.28l3.72,2.94-1.31,4.61c-.21.8.39,1.22,1.07.77l3.92-2.68Z"/><path id="path14825" class="cls-1" d="m139.29,308.98l3.66,2.47c.62.45,1.19.03.98-.71l-1.22-4.28,3.45-2.74c.59-.48.39-1.16-.36-1.19l-4.4-.15-1.49-4.19c-.27-.71-.98-.71-1.22,0l-1.52,4.19-4.37.15c-.74.03-.95.71-.39,1.19l3.48,2.74-1.22,4.28c-.21.74.36,1.16.98.71l3.63-2.47Z"/><path id="path14827" class="cls-1" d="m132.1,286.26l3.39,2.32c.56.42,1.1,0,.92-.68l-1.13-3.98,3.21-2.53c.54-.45.36-1.07-.36-1.1l-4.07-.15-1.4-3.89c-.24-.68-.89-.68-1.13,0l-1.4,3.89-4.07.15c-.71.03-.92.65-.36,1.1l3.21,2.53-1.13,3.98c-.18.68.33,1.1.92.68l3.39-2.32Z"/><path id="path14829" class="cls-1" d="m126.21,263.58l3.15,2.17c.54.39,1.04.03.86-.62l-1.07-3.72,3.03-2.35c.48-.42.3-1.01-.36-1.04l-3.78-.12-1.31-3.63c-.21-.62-.83-.62-1.07,0l-1.28,3.63-3.81.12c-.62.03-.83.62-.3,1.04l2.97,2.35-1.04,3.72c-.18.65.3,1.01.86.62l3.12-2.17Z"/><path id="path14831" class="cls-1" d="m121.78,240.93l2.91,2.02c.51.33.98,0,.77-.59l-.95-3.45,2.79-2.2c.48-.39.3-.92-.33-.95l-3.51-.09-1.22-3.39c-.21-.59-.77-.59-.98,0l-1.19,3.39-3.54.09c-.62.03-.8.56-.3.95l2.77,2.2-.95,3.45c-.18.59.27.92.77.59l2.94-2.02Z"/><path id="path14833" class="cls-1" d="m118.22,218.3l2.74,1.87c.45.3.89,0,.71-.56l-.89-3.18,2.59-2.05c.45-.39.27-.86-.3-.89l-3.27-.12-1.13-3.12c-.18-.54-.68-.54-.89,0l-1.13,3.12-3.27.12c-.56.03-.74.51-.3.89l2.59,2.05-.89,3.18c-.18.56.27.86.74.56l2.71-1.87Z"/><path id="path14835" class="cls-1" d="m115.99,195.68l2.53,1.72c.42.3.83,0,.68-.51l-.86-2.97,2.44-1.9c.39-.33.24-.8-.3-.83l-3.03-.09-1.04-2.91c-.18-.51-.68-.51-.86,0l-1.04,2.91-3.03.09c-.54.03-.68.51-.27.83l2.41,1.9-.83,2.97c-.18.51.24.8.68.51l2.53-1.72Z"/><path id="path14837" class="cls-1" d="m115.03,173.08l2.35,1.61c.39.27.77,0,.62-.48l-.77-2.76,2.23-1.78c.39-.33.27-.71-.24-.77l-2.85-.09-.95-2.71c-.18-.48-.62-.48-.77,0l-.98,2.71-2.82.09c-.51.06-.65.45-.24.77l2.23,1.78-.8,2.76c-.12.48.24.74.62.48l2.38-1.61Z"/><path id="path14839" d="m114.17,109.43v-4.52c6.66-3,13.38-5.86,20.13-8.53v8.38c-1.64.65-3.27,1.31-4.91,1.96v-3.86c-2.32.92-4.61,1.9-6.9,2.88v6.04c1.9-.8,3.78-1.61,5.68-2.38v4.28c-1.9.77-3.78,1.58-5.68,2.41v5.98c1.01-.48,2.08-.89,3.12-1.34v4.55c-3.84,1.64-7.64,3.3-11.45,4.99v-4.55c.95-.45,1.93-.89,2.91-1.31v-16.29c-.98.42-1.96.86-2.91,1.31"/><path id="path14841" d="m154.84,88.86c2.38-.83,3.3-.8,4.16-.21,1.34.89,1.99,3.06,1.99,10.85s-.65,10.32-1.99,12.13c-.86,1.16-1.78,1.78-4.16,2.59-2.79.95-5.59,1.93-8.38,2.94-2.32.86-3.3.89-4.13.33-1.34-.89-1.96-3-1.96-10.76s.62-10.38,1.96-12.22c.83-1.19,1.78-1.87,4.13-2.71,2.79-1.01,5.59-1.99,8.38-2.94m-8.18,23.19c.27.18.54.15,1.64-.27,1.58-.54,3.15-1.1,4.73-1.64,1.04-.39,1.4-.56,1.61-.89.3-.39.45-1.4.45-7.79s-.15-7.31-.45-7.52c-.24-.18-.56-.12-1.61.24-1.58.54-3.15,1.1-4.73,1.66-1.1.39-1.37.56-1.64.86-.27.45-.45,1.4-.45,7.88s.18,7.28.45,7.46"/><path id="path14843" d="m182.85,80.35c2.41-.65,3.36-.56,4.22.09,1.37.98,2.02,3.18,2.02,10.97s-.65,10.29-2.02,12.01c-.86,1.1-1.81,1.66-4.22,2.32-2.85.74-5.68,1.55-8.5,2.35-2.38.68-3.36.65-4.22.06-1.34-.98-1.99-3.12-1.99-10.88s.65-10.35,1.99-12.1c.86-1.13,1.84-1.75,4.22-2.44,2.82-.83,5.65-1.61,8.5-2.38m-8.29,22.65c.27.18.54.15,1.66-.15,1.58-.45,3.18-.92,4.79-1.34,1.07-.3,1.4-.48,1.64-.77.33-.36.45-1.37.45-7.76s-.12-7.34-.45-7.58c-.24-.15-.56-.12-1.64.15-1.61.45-3.21.89-4.79,1.34-1.13.33-1.4.48-1.66.77-.3.42-.48,1.37-.48,7.82s.18,7.31.48,7.52"/><path id="path14845" d="m213.38,94.09v4.58c-4.1.8-8.18,1.64-12.28,2.56v-4.58c1.1-.24,2.2-.48,3.3-.71v-16.35c-1.37.3-2.77.62-4.16.92v4.82c-1.58.39-3.18.74-4.79,1.13v-9.31c7.85-1.84,15.73-3.51,23.64-4.94v9.28c-1.64.3-3.24.59-4.85.89v-4.82c-1.37.3-2.76.56-4.16.83v16.35c1.1-.21,2.2-.45,3.3-.65"/><path id="path14847" d="m247.19,86.27c0,3.33-.62,4.82-1.69,6.01-.92,1.01-2.29,1.58-4.16,1.81-5.59.74-11.12,1.58-16.65,2.53v-4.58c1.01-.18,2.05-.36,3.06-.51v-16.29c-1.01.18-2.05.36-3.06.51v-4.52c5.5-.95,11.06-1.78,16.65-2.5,1.96-.27,3.21-.06,4.07.68,1.1.95,1.55,2.41,1.55,5.26,0,3.66-1.28,5.08-3.75,6.09v.09c2.76.21,3.98,1.4,3.98,5.41m-8.09-6.96c.83-.09,1.16-.18,1.37-.45.3-.36.45-.95.45-2.76s-.15-2.26-.45-2.5c-.18-.18-.48-.24-1.37-.12-1.9.27-3.78.54-5.65.8v5.83c1.87-.27,3.75-.54,5.65-.8m-5.65,11.45c1.93-.3,3.86-.56,5.8-.83.86-.12,1.19-.24,1.43-.54.27-.27.45-.71.45-2.94s-.15-2.74-.48-2.97c-.21-.21-.51-.24-1.4-.12-1.93.27-3.86.54-5.8.83v6.57Z"/><path id="path14849" d="m252.69,92.78v-4.58c.83-.09,1.66-.18,2.53-.27,2.08-6.57,4.22-13.14,6.33-19.68.48-1.46,1.01-1.9,2.44-2.02,1.4-.12,2.79-.21,4.19-.3,1.43-.12,1.96.27,2.44,1.64,2.14,6.24,4.25,12.46,6.39,18.73.8-.03,1.64-.09,2.47-.12v4.58c-3.89.18-7.82.39-11.71.68v-4.49c1.01-.09,1.99-.15,2.97-.21-.33-1.1-.65-2.2-1.01-3.27-2.59.18-5.2.36-7.79.56-.33,1.16-.65,2.29-.95,3.45.98-.09,1.96-.18,2.94-.27v4.52c-3.78.3-7.49.62-11.24,1.04m10.47-13.14c1.78-.15,3.57-.27,5.35-.42-.83-2.68-1.61-5.38-2.44-8.06-.15,0-.33,0-.48.03-.8,2.79-1.64,5.62-2.44,8.44"/><path id="path14851" d="m287.53,69.62c-1.07.03-2.08.06-3.12.09v-4.52c4.07-.15,8.12-.21,12.22-.24v4.49c-1.13.03-2.23.03-3.33.06v16.29c2.35-.03,4.7-.03,7.08-.03v-4.61c1.69,0,3.45,0,5.14.03v9.13c-7.02-.09-14.09,0-21.11.24v-4.58c1.04-.03,2.05-.06,3.12-.09v-16.26Z"/><path id="path14853" d="m314.14,69.68c-1.04-.06-2.08-.06-3.12-.09v-4.55c4.07.12,8.15.27,12.19.48v4.52c-1.07-.06-2.17-.09-3.3-.15v16.32c2.38.09,4.73.21,7.05.36v-4.61c1.75.12,3.48.24,5.2.36v9.13c-7.05-.51-14.09-.83-21.14-1.01v-4.58c1.04.03,2.08.06,3.12.09v-16.26Z"/><path id="path14855" d="m364.86,74.14v-4.52c3.89.56,7.82,1.19,11.71,1.84v4.55c-1.01-.18-1.99-.36-3-.51v10.47c0,5.98-.48,7.46-1.87,8.56-1.19.98-2.79,1.07-6.15.56-1.52-.24-3.06-.45-4.58-.65-3.36-.45-4.94-.98-6.09-2.23-1.4-1.58-1.87-3.15-1.87-9.16v-10.49c-1.01-.12-2.02-.21-3.03-.33v-4.55c3.95.48,7.91.95,11.83,1.49v4.55c-1.01-.15-1.99-.3-3.03-.42v11.03c0,3.51.27,4.25.68,4.73.36.39,1.04.59,3.09.89.56.06,1.13.15,1.69.24,1.96.27,2.65.27,3-.06.48-.36.62-.98.62-4.49v-11.06c-1.01-.15-1.99-.3-3-.45"/><path id="path14857" d="m400.83,80.89c-.98-.24-1.96-.45-2.94-.68v-4.52c3.72.83,7.4,1.69,11.12,2.62v4.55c-1.01-.27-1.99-.51-2.97-.74v20.84c-1.81-.45-3.63-.86-5.41-1.28-1.4-.33-1.78-.71-2.38-2.05-2.56-5.95-5.11-11.83-7.7-17.72-.09-.03-.24-.03-.36-.06v13.02c1.01.21,2.05.42,3.06.62v4.58c-3.78-.8-7.55-1.58-11.36-2.26v-4.58c1.01.21,2.05.39,3.06.56v-16.26c-1.01-.18-2.05-.39-3.06-.59v-4.52c3.06.56,6.09,1.16,9.13,1.81,1.37.27,1.75.65,2.38,1.99,2.38,5.44,4.7,10.94,7.08,16.41.12.03.24.06.36.09v-11.83Z"/><path id="path14859" d="m426.22,103.75v4.58c-3.98-1.16-7.94-2.26-11.92-3.3v-4.58c1.04.3,2.11.56,3.15.83v-16.26c-1.04-.3-2.11-.56-3.15-.83v-4.55c3.98,1.07,7.94,2.17,11.92,3.3v4.55c-1.04-.33-2.08-.59-3.15-.89v16.26c1.07.3,2.11.59,3.15.89"/><path id="path14861" d="m447.24,89.66c2.38.8,3.3,1.49,4.13,2.65,1.37,1.81,1.99,4.4,1.99,12.22s-.62,9.87-1.99,10.76c-.83.56-1.75.56-4.13-.27-2.79-.98-5.59-1.9-8.41-2.82-2.35-.74-3.33-1.37-4.16-2.5-1.37-1.81-2.02-4.37-2.02-12.13s.65-9.96,2.02-10.85c.83-.62,1.81-.62,4.16.12,2.82.92,5.62,1.84,8.41,2.82m-8.18,17.57c.24.33.51.51,1.64.86,1.58.54,3.15,1.04,4.73,1.61,1.07.36,1.4.39,1.61.21.33-.18.45-1.07.45-7.49s-.12-7.4-.45-7.85c-.21-.27-.54-.45-1.61-.83-1.58-.54-3.15-1.07-4.73-1.58-1.13-.36-1.4-.39-1.64-.24-.3.24-.48,1.07-.48,7.52s.18,7.43.48,7.79"/><path id="path14863" d="m477.8,106.01c-.95-.42-1.87-.8-2.82-1.19v-4.55c3.57,1.49,7.11,3.03,10.64,4.61v4.55c-.95-.42-1.9-.83-2.85-1.28v20.87c-1.72-.77-3.45-1.55-5.17-2.29-1.34-.56-1.72-1.01-2.26-2.47-2.47-6.39-4.91-12.75-7.37-19.09-.12-.06-.24-.09-.36-.15v13.02c.98.39,1.96.77,2.94,1.19v4.55c-3.63-1.46-7.25-2.91-10.94-4.28v-4.58c1.01.39,1.99.77,2.97,1.13v-16.26c-.98-.39-1.96-.77-2.97-1.13v-4.55c2.94,1.13,5.89,2.26,8.8,3.45,1.31.51,1.66,1.01,2.29,2.44,2.23,5.89,4.52,11.77,6.75,17.69.12.06.24.12.36.15v-11.83Z"/><path id="path14865" d="m116.13,142.16v-2.71c4.01-1.87,8-3.69,12.07-5.44v5.02c-.98.42-1.93.83-2.91,1.25v-2.32c-1.4.62-2.82,1.25-4.22,1.9v3.39c1.13-.51,2.26-1.04,3.42-1.55v2.56c-1.16.51-2.29,1.01-3.42,1.52v3.81c1.43-.68,2.88-1.34,4.34-1.99v-2.62c.95-.42,1.9-.83,2.88-1.25v5.32c-4.07,1.75-8.12,3.57-12.16,5.47v-2.71c.56-.27,1.16-.54,1.72-.83v-9.63c-.56.27-1.16.54-1.72.8"/><path id="path14867" d="m143.25,142.16c-.42.62-1.1,1.16-2.26,1.61-1.75.71-3.51,1.4-5.23,2.14-1.25.51-1.93.62-2.44.33-.62-.36-.83-1.22-.83-3.89,1.04-.45,2.08-.86,3.15-1.31.03,1.49.12,1.78.21,1.87.15.09.36.06.95-.21,1.01-.39,1.99-.8,2.97-1.19.56-.24.83-.36.98-.56.15-.24.18-.65.18-1.58,0-.74,0-1.01-.18-1.13-.15-.09-.45,0-1.01.15-1.43.39-2.85.83-4.28,1.25-.98.3-1.58.33-2.05.09-.54-.39-.74-1.16-.74-3.24,0-1.9.27-3.09.92-4.04.45-.65,1.13-1.19,2.23-1.64,1.64-.65,3.24-1.34,4.88-1.96,1.25-.51,1.96-.59,2.41-.33.65.42.83,1.16.86,3.78-1.04.42-2.08.83-3.15,1.25-.03-1.34-.09-1.64-.27-1.72-.09-.09-.3-.06-.86.18-.92.36-1.81.71-2.71,1.1-.56.21-.77.33-.89.51-.15.21-.18.62-.18,1.46,0,.74.03,1.01.21,1.1.12.12.36.03,1.01-.15,1.43-.42,2.82-.83,4.25-1.22,1.01-.3,1.58-.33,2.02-.06.56.39.8,1.19.8,3.24s-.27,3.24-.95,4.19"/><path id="path14869" d="m158.62,134.52v2.74c-2.38.8-4.73,1.64-7.11,2.5v-2.71c.65-.21,1.28-.45,1.9-.68v-9.69c-.8.27-1.58.56-2.38.86v2.85c-.92.36-1.87.68-2.79,1.04v-5.53c4.55-1.66,9.1-3.3,13.68-4.85v5.5c-.95.33-1.87.62-2.79.95v-2.85c-.8.27-1.61.56-2.41.83v9.69c.62-.21,1.25-.42,1.9-.65"/><path id="path14871" d="m436.51,133.21v2.65c-2.97-.98-5.95-1.93-8.92-2.85v-2.68c.98.3,1.96.62,2.94.95v-9.42c-.8,0-1.64,0-2.44.03-.3-.92-.56-1.84-.83-2.76,1.16-.09,2.32-.15,3.51-.21,1.01.33,1.99.65,3,.98v12.4c.89.33,1.81.62,2.74.92"/><path id="path14873" d="m443.7,133.87c.06,1.1.12,1.4.27,1.58.18.24.42.39.95.56.77.27,1.52.54,2.26.83.68.24.86.18,1.01.09.18-.09.36-.56.39-3.57-1.01.48-1.52.51-2.53.15-.65-.21-1.34-.45-1.96-.71-1.4-.48-2.2-.98-2.79-1.75-.71-.95-.92-2.08-.92-3.98,0-2.41.3-3.3.98-3.78.51-.33,1.28-.36,2.5.06,1.46.54,2.88,1.04,4.31,1.58,1.4.51,2.02,1.01,2.59,1.78.86,1.22,1.28,2.74,1.28,7.17s-.45,5.65-1.28,6.18c-.62.39-1.34.39-2.79-.15-1.34-.51-2.71-.98-4.04-1.46-1.28-.48-2.02-.92-2.53-1.61-.68-.95-.89-2.23-.95-4.1,1.1.36,2.2.74,3.27,1.13m4.88-2.59c-.06-2.59-.18-3.09-.36-3.33-.18-.27-.45-.45-1.04-.65-.77-.27-1.55-.56-2.29-.83-.54-.21-.77-.21-.92-.09-.18.12-.3.42-.3,1.64s.15,1.61.33,1.87c.18.21.45.36.98.59.65.21,1.28.42,1.9.65.62.24,1.1.27,1.69.15"/><path id="path14875" d="m458.27,143.83c1.93-3.33,3.89-6.66,5.89-9.96-1.64-.65-3.27-1.34-4.88-1.99v2.65c-.98-.42-1.93-.77-2.91-1.19v-5.32c3.78,1.49,7.58,3.03,11.33,4.64v2.38c-1.99,3.39-3.95,6.78-5.95,10.2-1.16-.48-2.32-.92-3.48-1.4"/><path id="path14877" d="m481.91,139.75c.62.92.92,1.99.92,3.6,0,2.17-.77,2.62-2.08,2.38v.06c1.55,1.04,2.2,2.2,2.2,4.55,0,1.81-.36,2.56-.95,2.91-.54.33-1.28.21-2.41-.3-1.55-.71-3.12-1.4-4.67-2.11-1.07-.48-1.84-1.07-2.41-1.87-.59-.92-.98-1.99-.98-3.81,0-2.35.68-2.88,2.26-2.56v-.03c-1.31-.98-2.11-2.08-2.11-4.28,0-1.61.3-2.41.92-2.76.54-.3,1.22-.24,2.38.27,1.52.68,3.06,1.4,4.58,2.08,1.16.54,1.84,1.07,2.35,1.87m-7.02,6.54c0,1.13.12,1.52.3,1.75.15.24.33.39.89.65.8.36,1.61.71,2.38,1.07.54.24.74.27.89.18.18-.12.3-.36.3-1.52s-.12-1.55-.33-1.87c-.12-.21-.3-.36-.86-.59-.77-.36-1.58-.71-2.38-1.07-.59-.27-.74-.27-.89-.18-.18.12-.3.45-.3,1.58m.15-6.12c0,1.01.12,1.4.3,1.69.15.21.33.36.83.56.74.33,1.46.65,2.17.98.54.24.71.27.86.18.15-.12.33-.39.33-1.4s-.12-1.31-.33-1.61c-.12-.18-.3-.36-.86-.59-.71-.36-1.43-.68-2.17-.98-.54-.27-.74-.24-.83-.15-.21.09-.3.33-.3,1.31"/><path id="path14879" d="m183.21,70.18c-2.35.59-3.3.56-4.16-.09-1.34-1.01-1.99-3.18-1.99-10.97s.65-10.29,1.99-12.01c.86-1.1,1.81-1.69,4.16-2.32,2.74-.68,5.5-1.37,8.24-2.02,2.23-.54,3.48-.54,4.25.09,1.28.98,1.64,2.91,1.69,7.7-1.84.42-3.69.83-5.56,1.28-.06-3.09-.18-3.84-.45-4.07-.24-.15-.54-.15-1.55.09-1.58.39-3.18.77-4.76,1.19-1.1.3-1.4.42-1.64.71-.3.42-.48,1.37-.48,7.79s.18,7.31.48,7.55c.24.18.54.18,1.64-.09,1.58-.42,3.18-.83,4.76-1.19,1.01-.27,1.34-.45,1.55-.68.27-.39.36-.98.45-4.55,1.87-.45,3.72-.86,5.56-1.31-.06,4.99-.39,7.14-1.69,8.71-.8,1.04-2.08,1.64-4.28,2.17-2.74.65-5.47,1.31-8.21,2.02"/><path id="path14881" d="m202.74,65.58v-4.55c.83-.21,1.64-.36,2.47-.54,2.05-6.78,4.13-13.59,6.18-20.34.48-1.52.98-1.99,2.38-2.29,1.37-.24,2.74-.48,4.07-.71,1.43-.27,1.93.06,2.41,1.37,2.08,6.04,4.13,12.04,6.24,18.08.77-.12,1.61-.27,2.41-.39v4.55c-3.81.59-7.64,1.25-11.45,1.93v-4.49c.98-.18,1.93-.36,2.91-.54-.36-1.04-.65-2.08-.98-3.15-2.56.45-5.11.92-7.64,1.43-.3,1.16-.62,2.32-.92,3.51.95-.21,1.93-.39,2.88-.56v4.49c-3.66.68-7.31,1.43-10.97,2.2m10.2-14.21c1.75-.33,3.51-.62,5.26-.95-.8-2.62-1.61-5.23-2.41-7.85-.15.06-.3.09-.45.12-.8,2.88-1.61,5.77-2.41,8.68"/><path id="path14883" d="m255.42,52.88c.89-.09,1.78-.18,2.68-.27v4.61c-1.75.15-3.51.33-5.23.51-1.55.15-2.08-.03-2.53-.45-.54-.48-.83-1.37-.98-6.01-.06-1.93-.27-2.47-.65-2.85-.48-.39-.98-.48-2.26-.33-1.34.15-2.68.3-4.01.48v5.77c1.04-.15,2.11-.27,3.15-.39v4.58c-3.95.45-7.91.98-11.86,1.55v-4.58c1.01-.15,2.05-.3,3.06-.42v-16.29c-1.01.15-2.05.3-3.06.45v-4.55c5.47-.77,10.94-1.46,16.41-2.05,1.93-.21,3.21,0,4.07.77,1.07.95,1.46,2.23,1.46,5.71,0,4.49-1.13,5.56-4.07,6.39v.06c2.62.27,3.6,1.1,3.72,4.79,0,.74.06,1.75.12,2.53m-7.85-9.16c1.07-.12,1.43-.24,1.64-.48.33-.36.45-.92.45-2.88s-.12-2.53-.45-2.85c-.21-.15-.56-.24-1.64-.09-1.72.18-3.42.39-5.14.59v6.3c1.72-.21,3.42-.42,5.14-.59"/><path id="path14885" d="m275.16,51.42v4.58c-4.04.21-8.09.48-12.1.8v-4.55c1.07-.12,2.14-.18,3.21-.27v-16.26c-1.07.06-2.14.15-3.21.24v-4.55c4.01-.3,8.06-.56,12.1-.77v4.52c-1.07.06-2.11.12-3.18.18v16.29c1.07-.06,2.11-.15,3.18-.21"/><path id="path14887" d="m303.23,48.27c0,3.33-.62,4.73-1.69,5.8-.89.89-2.26,1.28-4.13,1.28-5.5.06-11.03.18-16.56.39v-4.58c1.04-.03,2.05-.06,3.09-.09v-16.29c-1.04.06-2.05.09-3.09.12v-4.52c5.53-.24,11.06-.36,16.56-.39,1.99-.03,3.18.33,4.07,1.19,1.07,1.1,1.55,2.62,1.55,5.44,0,3.66-1.28,4.96-3.75,5.65v.06c2.76.59,3.95,1.9,3.95,5.95m-8-7.97c.8-.03,1.13-.03,1.34-.27.3-.33.45-.92.45-2.74s-.15-2.26-.45-2.56c-.18-.18-.48-.3-1.34-.3-1.87.03-3.78.06-5.65.09v5.86c1.87-.06,3.78-.09,5.65-.09m-5.65,10.7c1.93-.03,3.86-.09,5.8-.09.83,0,1.16-.09,1.4-.33.27-.27.48-.71.48-2.91s-.18-2.74-.48-3.03c-.24-.21-.54-.3-1.4-.27-1.93,0-3.86.03-5.8.06v6.57Z"/><path id="path14889" d="m331.8,49.37c0,3.33-.62,4.7-1.69,5.68-.92.83-2.26,1.16-4.13,1.04-5.53-.3-11.03-.54-16.56-.62v-4.58c1.04.03,2.05.03,3.06.06v-16.26c-1.01-.03-2.02-.06-3.06-.09v-4.52c5.53.12,11.03.33,16.56.65,1.96.09,3.18.51,4.04,1.43,1.07,1.16,1.55,2.71,1.55,5.53,0,3.69-1.28,4.88-3.72,5.44v.06c2.74.74,3.95,2.14,3.95,6.18m-8.03-8.47c.83.03,1.16.03,1.37-.18.27-.3.45-.89.45-2.71s-.18-2.29-.45-2.59c-.18-.21-.51-.33-1.37-.36-1.87-.09-3.75-.21-5.62-.27v5.86c1.87.06,3.75.15,5.62.24m-5.62,10.38c1.93.06,3.86.15,5.77.24.83.06,1.19,0,1.43-.24.27-.24.45-.65.45-2.85s-.15-2.76-.48-3.09c-.21-.24-.51-.33-1.4-.36-1.9-.12-3.84-.18-5.77-.3v6.6Z"/><path id="path14891" d="m337.95,36.08v-4.52c7.14.59,14.24,1.34,21.35,2.26v8.44c-1.69-.24-3.42-.45-5.11-.62v-3.95c-2.47-.3-4.99-.56-7.49-.83v5.74c2.02.21,4.04.42,6.06.65v4.28c-2.02-.24-4.04-.48-6.06-.68v6.36c2.56.27,5.11.54,7.67.83v-4.4c1.72.21,3.42.42,5.11.62v8.95c-7.17-.92-14.36-1.66-21.52-2.29v-4.55c1.01.09,2.02.15,3.06.24v-16.26c-1.04-.09-2.05-.18-3.06-.27"/><path id="path14893" d="m364.71,59.93v-4.58c.8.12,1.64.24,2.47.39,2.05-6.09,4.13-12.13,6.21-18.17.48-1.34.98-1.66,2.41-1.43,1.37.24,2.74.45,4.1.71,1.4.24,1.9.74,2.38,2.23,2.08,6.72,4.13,13.5,6.21,20.25.77.18,1.61.33,2.41.51v4.55c-3.81-.74-7.61-1.46-11.45-2.14v-4.49c1.01.18,1.96.36,2.91.51-.3-1.16-.65-2.35-.98-3.48-2.53-.48-5.08-.89-7.64-1.31-.3,1.04-.62,2.11-.92,3.18.95.15,1.93.3,2.88.48v4.46c-3.66-.59-7.34-1.13-11-1.66m10.26-10.58c1.75.3,3.48.59,5.23.89-.8-2.88-1.58-5.77-2.38-8.68-.15-.03-.3-.06-.48-.09-.8,2.65-1.58,5.26-2.38,7.88"/><path id="path14895" d="m414.33,48.87c-.98-.24-1.93-.48-2.88-.71v-4.55c3.63.92,7.28,1.84,10.88,2.85v4.52c-.95-.27-1.93-.54-2.91-.77v20.84c-1.75-.48-3.54-.95-5.29-1.37-1.37-.36-1.75-.8-2.35-2.14-2.5-5.98-5.02-11.92-7.55-17.84-.09-.03-.21-.06-.36-.09v12.99c1.01.24,2.02.48,3.03.71v4.55c-3.75-.86-7.46-1.69-11.18-2.47v-4.58c1.01.21,2.02.42,3.03.65v-16.29c-1.01-.21-2.02-.45-3.03-.65v-4.52c3,.62,5.98,1.31,9.01,1.99,1.31.3,1.69.71,2.29,2.05,2.32,5.5,4.64,11.03,6.96,16.59.12.03.24.06.36.09v-11.86Z"/><path id="path14897" class="cls-5" d="m208.24,300.03c-53.31-83.1,8.03-169.82,8.03-169.82,0,0-11.36,1.9-26.55,6.06-10.61,28.15-30.44,101.14,18.52,163.75"/><path id="path14899" class="cls-2" d="m417.63,115.64c-34.93-9.31-75.81-15.1-117.64-15.1-46.59,0-88.98,5.89-126.71,17.3-.09.89-.39,3.18-.77,6.12-.74,5.59-1.81,12.75-2.32,17.3-8.44,3.12-20.93,5.83-34.7,12.4-2.85,68.74,52.09,142.44,98.38,172.64.24.18.3.03.09-.18-.83-.89-1.64-1.78-2.44-2.74-88.63-92.43-.74-250.45,186.56-206.24.83-.09.98-1.16-.45-1.52m-208.89,185.49c-5.56-5.83-51.67-57.17-38.32-158.88,6.75-2.35,13.32-4.34,19.29-5.98,15.22-4.16,26.55-6.06,26.55-6.06,0,0-61.33,86.72-8.03,169.82.39.56.74,1.16,1.1,1.72.15.18-.39-.54-.59-.62"/><path id="path14901" d="m282.18,282.34l-11.15-34.34,29.2-21.23,29.2,21.23-11.12,34.34h-36.12Z"/><path id="path14903" d="m284.47,327.5l-8.95,12.46c-17.21-6.63-31.87-18.31-42.22-33.24l7.55-10.49,26.55,8.98,17.07,22.3Z"/><path id="path14905" d="m310.81,175.31c-2.2-.15-4.46-.24-6.69-.24-11.95,0-19.12,1.87-21.85,3.21-.51.24-.89.48-1.1.65-3.48,4.67-5.68,12.46-7.08,18.22l26.16,7.67,21.64-6.84,5.11-1.61-.18-16.35-16.02-4.73Z"/><path id="path14907" d="m240.2,234.27c-2.47,0-4.7-1.16-6.15-3.18-2.2-3.09-2.38-7.88-.45-13.47,1.19-3.51,2.88-6.39,4.64-8.86l-3.12-1.16-16.89,22.39-1.52,28.01,15.34,5.62,16.89-22.39.65-12.04c-3.18,3.36-6.33,5.08-9.39,5.08"/><path id="path14909" d="m383.77,257.99l-15.37,5.62-16.89-22.42-1.52-27.98,15.34-5.62,16.89,22.42,1.55,27.98Z"/><path id="path14911" class="cls-8" d="m270.91,436.52c3.95,2.94,8.83,6.48,14.36,10.26l2.68,1.61s109.23-45.16,115.74-144.43c-.92,8.21-4.55,23.64-14.24,43.53-27.83,56.9-94.9,80.33-118.53,89.04"/><path id="path14913" class="cls-2" d="m380.62,201.27c-.15-.06-.21.03-.12.15,31.87,36.45,70.91,164.02-80.51,254.76-5.35-3.15-10.26-6.33-14.72-9.39-5.56-3.78-10.41-7.31-14.36-10.26,23.61-8.71,90.71-32.14,118.5-89.04,9.72-19.86,13.38-35.32,14.27-43.53.06-.71.15-1.4.18-2.02v-.21c-.03-.68-.8-.48-.92,0-.03.06-.09.21-.09.21-10.08,30.86-27,62.55-75.16,88.15-27.98,14.89-63.06,23.72-81.34,25.45-.06-.03-.09-.09-.12-.12-9.51,1.49-18.19,2.41-19.53,2.56,20.57,23.19,44.74,44.27,73.29,62.31,39.93-25.27,72.01-56.43,96.62-90.97,11.24-16.11,20.51-32.02,27.77-46.08,12.49-24.82,13.05-28.54,19.53-45.67-17.39-56.58-57.17-93.06-63.3-96.3"/><path id="path14915" d="m330.82,317.93c1.04-3.57,4.37-6.99,8.98-11.71,1.55-1.61,3.21-3.27,4.88-5.08l-12.04,4.07-17.04,22.27,7.55,10.55c4.04-5.53,5.65-12.01,6.81-16.83.3-1.25.59-2.35.86-3.27"/><path id="path14917" class="cls-6" d="m400.8,274.02s-.03.03-.03.06v.03c-20.19,132.54-159.59,108.96-218.22,80.81,6.45,11.48,13.32,22.12,20.31,31.93,71.74,13.85,188.43,3.48,197.94-112.83"/><path id="path14919" d="m400.74,274.1v-.03c.18-4.4-5.26-7.91-8.74,4.96-4.67,21.55-14.89,38.2-31.72,50.87-2.65,1.4-5.68,1.1-6.48.62-3.21-.68-3.69-7.08-3.09-10.23,1.34-6.96,9.34-11.21,12.69-21.02,1.84-5.29.36-9.72-2.08-10.52-.62-.15-.95.18-1.19.48-1.37,1.75-5.53,6.51-7.28,8.71-7.82,9.9-16.74,16.62-18.08,21.17-1.34,4.55-2.71,14.15-8.68,21.91-1.46,1.96-3.12,3.69-5.77,4.76-75.63,21.97-154.15-52.56-170.15-68.44,8.32,29.25,19.65,55.06,32.38,77.6,58.6,28.12,198.03,51.7,218.19-80.84"/><path id="path14921" class="cls-3" d="m464.66,154.98c-106.79-49.32-252.14-41.56-264.63,89.96.06-.06,0,.56.03.51,0-.15-.03-.33-.03-.51,19.06-141.25,185.37-113.93,264.33-56.04.48-10.17.59-23.16.3-33.92"/><path id="path14923" d="m200.06,244.94c-.03.15,0,.36,0,.51.24,4.16,5.41,6.96,8.74-5.44,4.67-21.55,14.89-38.17,31.75-50.87,2.62-1.4,5.62-1.1,6.45-.62,3.21.68,3.69,7.11,3.12,10.23-1.37,6.96-9.37,11.21-12.72,21.02-1.84,5.29-.36,9.72,2.11,10.52.59.15.92-.18,1.19-.48,1.34-1.75,5.5-6.51,7.25-8.68,7.82-9.93,16.74-16.62,18.08-21.17,1.34-4.58,2.74-14.18,8.68-21.94,1.49-1.93,3.15-3.69,5.77-4.76,70.85-25.18,145.53,42.63,174.31,86.49,5.05-21.82,8.44-45.4,9.6-70.85-79.02-57.88-245.3-85.21-264.33,56.04"/><path id="path14925" class="cls-7" d="m500.99,207.12c-19.27,219.47-184.03,317.25-201.01,327.95-16.98-10.7-181.71-108.49-200.98-327.95-.59-6.45-1.9-6.39-1.75.12,5.26,241.74,184.98,348.32,202.73,359.56,17.78-11.24,197.5-117.82,202.76-359.56.15-6.51-1.19-6.57-1.75-.12"/></g></svg>