<?xml version="1.0" encoding="UTF-8"?><svg xmlns="http://www.w3.org/2000/svg" viewBox="0 0 600 600"><defs><style>.cls-1{fill:#1d1860;}.cls-1,.cls-2,.cls-3,.cls-4,.cls-5{fill-rule:evenodd;}.cls-2{fill:#fed100;}.cls-3{fill:#fefdfe;}.cls-4{fill:#0059ff;}.cls-5{fill:#029c54;}</style></defs><g id="Layer_1" image-rendering="optimizeQuality" shape-rendering="geometricPrecision" text-rendering="geometricPrecision"><path class="cls-4" d="m438.89,327.85l-.04-33.22h.03l.23-23.02c.55-10.44,1.04-19.61,3.21-29.39.98-4.41,2.04-8.43,3.63-12.4l5.18-11.29c-8.9-2.9-24.46-12.42-31.12-17.52-6.88-5.25-17.49-12.95-23.85-18.75-1.06-.97-2.24-2.06-3.47-3.04l-13.27-11.07c-9.39-7.98-33.58-25.99-45.08-28.57-2.77-1.14-12.35-2.29-15.85-2.71-6.37-.77-11.83-.92-18.52-.99-6.69.08-12.14.22-18.52.99-3.5.43-13.08,1.57-15.85,2.71h.02c-7.92,1.89-24.71,13.02-30.74,17.4-6.56,4.77-21.08,16.39-27.14,21.99-1.1,1.01-1.86,1.51-3.3,2.77-13.24,11.68-31.19,24.97-46.98,33.02-2.75,1.4-5.87,2.41-8.51,3.99.63,2.43,2.39,4.78,3.49,7.27,9.48,21.52,8.28,45.19,8.62,68.6l.05.08c-.03,11.36-.12,22.73-.09,34.08l.09,32.25h.13l.04,36.3c.2,12.95.59,44.03,4.57,54.37,2.68,6.97,5.34,13.98,9.21,19.92,7.63,11.73,18.06,22.11,31.59,27.1,7.22,2.66,33,14.33,40.2,18.04l19.5,9.85c1.55,1.36,6.77,4.01,8.89,5.22,2.9,1.66,5.9,3.47,8.69,5.24,8.53,5.43,9.79,7.22,16.13,11.71,6.34-4.49,7.6-6.28,16.13-11.71,2.78-1.77,5.79-3.58,8.69-5.24,2.13-1.21,7.35-3.86,8.89-5.22,0-.01,0-.05-.01-.07,3.47-1.36,7.88-4.08,11.37-5.88,8.44-4.35,26.63-12.97,34.68-16.18,3.88-1.55,8.09-3.37,11.9-5.03,21.4-9.36,32.06-21.66,40.83-43.56,3.73-9.32,4.24-17.83,5.09-28.81,1.08-14,1.77-51.94,1.19-65.97h.05l.04-33.24Z"/><path class="cls-2" d="m266.62,323.35l33.34-.07v-187.41c6.69.08,12.14.22,18.52.99,3.5.43,13.08,1.57,15.85,2.71,11.5,2.58,35.69,20.58,45.08,28.57l13.27,11.07c1.23.98,2.41,2.07,3.47,3.04,6.36,5.81,16.97,13.5,23.85,18.75,6.67,5.1,22.22,14.62,31.13,17.52l-5.18,11.29c-1.59,3.97-2.65,7.99-3.63,12.4-2.17,9.77-2.66,18.95-3.21,29.39l-.23,23.02-105.44.22.05,33.1-.11-.06,105.52-.12-.09,33.25c.59,13.97-.1,52.03-1.19,66.05-.85,10.99-1.36,19.49-5.09,28.81-8.77,21.9-19.43,34.2-40.83,43.56-3.8,1.66-8.01,3.48-11.9,5.03-8.05,3.21-26.24,11.82-34.68,16.18-3.51,1.81-7.94,4.54-11.41,5.89l-.33-.03v-202.62s0-.58,0-.58l-33.31.03-.02,225.43c-6.34-4.49-7.6-6.28-16.13-11.71-2.78-1.77-5.79-3.58-8.69-5.24-2.13-1.21-7.35-3.86-8.89-5.22l-19.5-9.85c-7.2-3.71-32.99-15.38-40.2-18.04-13.53-4.99-23.96-15.37-31.59-27.1-3.86-5.94-6.52-12.96-9.21-19.92-3.98-10.34-4.38-41.42-4.57-54.37l-.04-36.3h105.52s-.08-33.2-.08-33.2h-105.66s.04-33.2.04-33.2c-.34-23.41.86-47.08-8.62-68.6-1.1-2.49-2.86-4.84-3.49-7.27,2.64-1.58,5.76-2.58,8.51-3.99,15.79-8.06,33.74-21.35,46.98-33.02,1.43-1.26,2.2-1.76,3.3-2.77,6.06-5.6,20.57-17.22,27.14-21.99,6.3-4.58,24.36-16.53,31.76-17.6v183.97Zm.06-217.69v24.92c-6.66,1.03-13.74,5.05-19.07,7.87-3.09,1.64-5.48,3.38-8.37,5.1-5.62,3.36-10.57,7.45-15.72,11.23l-18.4,15.06c-.95.89-2.34,2.15-3.47,3.06l-7.43,6.04c-11.51,10.2-26.04,20.52-39.77,27.64-6.25,3.24-11.93,5.09-18.67,7.83.61,1.73,6.78,8.58,11.26,21.41,2.99,8.57,4.12,18.14,4.83,27.69.5,6.73,1.22,60.77.35,64.18l-22.94.09v33.33l23.27.02c-.11,21.9-.71,70.9,4.3,90.49,1.09,4.28,4.58,12.78,6.59,16.87,7.84,15.97,19.67,28.38,35.49,36.2l32.86,14.51c13.27,5.31,44.4,21.85,57.24,31.89,2.87,2.25,7.21,5.83,9.45,8.4,1.34,1.54,1.41,1.67,1.47,4.4.05,2.04.04,4.07.04,6.11,0,7.79.3,16.19-.06,23.91,3.83-6.2,30.86-29.73,33.47-31.3v-26.2s26.66-13.42,26.66-13.42c9.66-4.54,18.28-8.5,27.87-12.57,6.23-2.64,14.8-5.96,20.28-9.7,2.25-1.53,4.15-2.63,6.13-4.29,1.05-.88,1.62-1.36,2.63-2.14l7.64-7.56c21.11-26,21.27-45.87,22.53-78.43.51-13.17-.27-72.76.51-80.22l23.31-.17c0-11.58.43-22.1.43-33.31h-23.8c.43-26.93-1.75-49.62,12.12-73.14l4.63-7.02c-3.83-1.54-7.75-2.77-11.61-4.35-3.63-1.5-6.95-3.33-10.44-5.19-9.11-4.86-20.38-12.6-28.04-18.93-1.55-1.28-3.02-2.36-4.34-3.49l-21.32-17.81c-5.83-4.93-11.36-9.39-17.65-14.07-7.08-5.27-15.68-10.71-24.14-14.97-1.74-.88-3.53-1.85-5.27-2.58-9.64-4.08-30.7-5.94-41.19-5.77-.83-2.67-.29-19.92-.3-24.11-10.38,0-23.09.42-33.35,2.54h0Z"/><path class="cls-1" d="m471.38,294.55l1.93-31.28c.9-6.1,1.05-8.34,2.43-14.09,2.52-10.48,2.75-11.39,7.63-21.5,2.52-5.21,5.18-8.3,8.5-12.8.63-.85,1.04-1.34,1.79-2.12,3.44-3.6,5.62-6.67,10.39-10.48,1.19-.95,3.97-3.25,4.28-4.41-9.62,0-26.2-3.02-35.47-6.69-9.21-3.66-18.29-7.94-26.57-13.42-15.58-10.31-19.46-13.88-34.08-25.47-1.84-1.46-3.41-2.75-5.3-4.27-12.23-9.86-24.62-19.81-38.21-27.86l-6.17-3.39c-4.52-2.69-11.75-5.25-16.19-7.28-1.53-.7-1.83-.73-3.52-1.26l-7.41-2.16c-10.08-2.53-24.82-2.96-35.38-2.96,0,4.19-.53,21.44.3,24.11,10.49-.17,31.55,1.69,41.19,5.77,1.74.74,3.53,1.71,5.27,2.58,8.46,4.26,17.06,9.7,24.14,14.97,6.3,4.69,11.82,9.14,17.65,14.07l21.32,17.81c1.31,1.12,2.79,2.2,4.34,3.49,7.65,6.33,18.93,14.08,28.04,18.93,3.49,1.86,6.8,3.7,10.44,5.19,3.86,1.59,7.78,2.82,11.61,4.35l-4.63,7.02c-13.87,23.52-11.69,46.2-12.12,73.13h23.8Zm-342.1,33.21l22.94-.09c.87-3.4.15-57.45-.35-64.18-.71-9.54-1.83-19.11-4.83-27.69-4.48-12.83-10.66-19.69-11.26-21.41,6.74-2.74,12.42-4.59,18.67-7.83,13.73-7.12,28.26-17.44,39.77-27.64l7.43-6.04c1.13-.9,2.52-2.16,3.47-3.06l18.4-15.06c5.15-3.78,10.11-7.87,15.72-11.23,2.89-1.73,5.28-3.47,8.37-5.1,5.33-2.82,12.41-6.84,19.07-7.87v-24.92c-2.94.45-10.15,2.55-12.9,3.72l-5.84,2.42c-14.28,6.47-13.66,6.81-26.8,14.93-1.98,1.22-3.2,2.12-4.93,3.33-1.69,1.19-3.08,2.3-4.77,3.48l-7.21,5.39c-.9.68-1.54,1.24-2.41,1.94-1.6,1.28-2.94,2.34-4.59,3.67-1.6,1.3-3.07,2.35-4.58,3.68-3.11,2.72-6.3,4.88-9.35,7.6-3.01,2.69-6.01,4.82-9.14,7.38l-24.63,17.1c-1.99,1.2-3.6,2-5.54,3.15-5.36,3.18-17.74,8.26-23.57,9.9l-6.46,1.8c-7.75,1.57-14.19,2.72-22.49,2.72,1.38,2.07,3.47,3.23,5.33,5.11,9.35,9.46,14.1,14.01,20.62,26.33,2.59,4.9,5.9,14.22,6.84,19.68.58,3.37,1.2,5.11,1.63,8.8.34,2.85.88,6.13,1.23,9.21,1.95,17.31,2.17,42.41,2.17,60.77h0Zm170.65,266.12c.36-7.71.06-16.12.06-23.91,0-2.04,0-4.07-.04-6.11-.06-2.74-.13-2.86-1.47-4.4-2.24-2.57-6.58-6.15-9.45-8.4-12.84-10.04-43.97-26.58-57.24-31.89l-32.86-14.51c-15.82-7.82-27.65-20.23-35.49-36.2-2-4.08-5.49-12.59-6.59-16.87-5.01-19.59-4.41-68.59-4.3-90.49l-23.27-.02c0,27.9-2.99,84.71,12.19,113.67,6.72,12.82,10.58,19.29,19.53,30.89,4.48,5.8,13.87,13.03,20.67,17.58,4.73,3.17,15.43,9.09,20.53,10.77,36.69,12.66,73.78,27.67,97.2,59.67.8.82.11.52.52.22h0Zm33.47-31.3c1.56-.83,8.56-5.04,10.91-6.23,18.66-9.46,27.02-13.11,45.26-19.08,6-1.91,14.37-6.05,19.88-8.81,1.7-.85,2.38-1.22,3.98-2.11l7.16-4.58c27.25-18.89,41.07-48.72,47.43-80.37,3.08-15.33,2.5-28.77,2.5-44.02,0-23.16.43-46.47.43-69.54l-23.31.17c-.77,7.46,0,67.05-.51,80.22-1.26,32.57-1.41,52.43-22.53,78.43l-7.64,7.56c-1.01.78-1.58,1.26-2.63,2.14-1.98,1.66-3.88,2.76-6.13,4.29-5.48,3.73-14.05,7.06-20.28,9.7-9.59,4.07-18.22,8.03-27.87,12.57l-26.64,13.42v26.2Z"/><path class="cls-5" d="m266.33,526.6c1.55,1.36,6.77,4.01,8.89,5.22,2.9,1.66,5.9,3.47,8.69,5.24,8.53,5.43,9.79,7.22,16.13,11.71l.02-225.43-33.48-.04c.08,10.46.77,200.46-.25,203.3Zm33.62-203.32l33.39.03.03-182.81c.29-1.33-.4-.72.94-.92-2.77-1.14-12.35-2.29-15.85-2.71-6.37-.77-11.83-.92-18.52-.99v187.41Zm-8.11-292.32h-26.52l21.3,15.65-8.26,24.78,21.73-15.21,21.3,15.21-8.26-25.21,21.3-15.21h-26.52l-8.26-24.78-7.82,24.78Z"/><path class="cls-5" d="m266.66,327.82l.06-33.2h-105.68s-.04,33.21-.04,33.21h105.66Zm172.13,33.2l.09-33.25-105.52.12v33.21s105.43-.08,105.43-.08ZM195.13,51.82h-26.52l21.3,15.65-8.26,24.78,21.73-15.21,21.3,15.21-8.26-25.21,21.3-15.21h-26.52l-8.26-24.78-7.82,24.78Zm-79.11,60.64h-26.52l21.3,15.65-8.26,24.78,21.73-15.21,21.3,15.21-8.26-25.21,21.3-15.21h-26.52l-8.26-24.78-7.82,24.78Zm288.85-60.42h26.52l-21.3,15.65,8.26,24.78-21.73-15.21-21.3,15.21,8.26-25.21-21.3-15.21h26.52l8.26-24.78,7.82,24.78Zm79.11,60.64h26.52l-21.3,15.65,8.26,24.78-21.73-15.21-21.3,15.21,8.26-25.21-21.3-15.21h26.52l8.26-24.78,7.82,24.78Z"/><path class="cls-3" d="m193.68,396.11c-.05-45.41-.05-90.83,0-136.24,13.23,11.56,26.46,22.97,39.34,34.91l33.61.04v-33.23l-35.09-39.36c45.65-.02,91.27-.02,136.92,0l-35.09,39.36v33.23l33.61-.04c12.88-11.93,26.11-23.34,39.34-34.91.05,45.41.05,90.83,0,136.24-13.23-11.56-26.46-22.97-39.34-34.91l-33.61-.04v33.23l35.09,39.36-48.64.02h0s-19.28,0-19.28,0h-20.36s0,0,0,0l-48.64-.02,35.09-39.36v-33.23l-33.61.04c-12.88,11.93-26.11,23.34-39.34,34.91h0Z"/><path class="cls-1" d="m291.2,331.59c2.9-.31,9.32-.28,12.28-.03,4.47.37,5.98,2.15,5.98,6.74,0,4.97-1.63,6.26-6.29,6.54-2.74.16-9.49.28-12.02-.12l.05-13.12Zm-.05-20.85c3.69.03,7.99-.21,11.59.07,3.86.29,5.39,1.73,5.3,5.75-.16,7.59-7.7,5.74-16.93,5.82l.04-11.64Zm22.57,15.38c4.35-2.75,6.26-5.01,6.09-11.75-.15-5.88-2.19-9.29-6.36-11.19-5.99-2.73-25.99-1.55-33.88-1.68v52.68c9.73-.15,28.21,1.51,35.85-2.73,4.48-2.49,6.06-6.54,5.83-13.61-.29-9.2-5.85-10.06-7.53-11.73h0Zm-43.14,17.74c-5.7.03-14.33.84-19.63-.35-6.17-1.38-6.12-7.95-6.12-14.35,0-6.24-.69-13.86,3.81-16.23,4.76-2.51,13.87-.54,19.3-1.26l2.09-10.06c-29.3-1.4-39.48.09-37.77,31.48.63,11.59,3.31,18.18,14.51,20.39,5.14,1.02,11.09.92,16.4.81,6.57-.14,4.76,2.05,7.42-10.43h0Zm59.84,10.32h12.34s0-20.57,0-20.57h20.12s1.8-10.3,1.8-10.3l-21.78.02-.15-11.49h23.16s1.83-10.29,1.83-10.29h-37.32s0,52.64,0,52.64Z"/></g></svg>