<?xml version="1.0" encoding="UTF-8"?><svg xmlns="http://www.w3.org/2000/svg" xmlns:xlink="http://www.w3.org/1999/xlink" viewBox="0 0 600 600"><defs><style>.cls-1{fill:url(#linear-gradient);}.cls-2{fill:#fff;}.cls-3{fill:#05589c;}.cls-4{fill:url(#linear-gradient-2);}</style><linearGradient id="linear-gradient" x1="-1176.61" y1="96.51" x2="-1183.9" y2="83.88" gradientTransform="translate(20021 1719.97) scale(16.72 -16.72)" gradientUnits="userSpaceOnUse"><stop offset="0" stop-color="#8cbae4"/><stop offset=".11" stop-color="#6dacdf"/><stop offset=".54" stop-color="#005ca4"/><stop offset="1" stop-color="#005ca4"/></linearGradient><linearGradient id="linear-gradient-2" x1="-1174.33" y1="97.79" x2="-1184.63" y2="79.95" gradientTransform="translate(20021 1719.97) scale(16.72 -16.72)" gradientUnits="userSpaceOnUse"><stop offset=".05" stop-color="#8cbae4"/><stop offset=".54" stop-color="#005ca4"/><stop offset="1" stop-color="#005ca4"/></linearGradient></defs><g id="Layer_1" image-rendering="optimizeQuality" shape-rendering="geometricPrecision" text-rendering="geometricPrecision"><path id="path24" class="cls-3" d="m102.25,538.21c-2.74-.04-5.46-.44-8.08-1.2-2.75-.74-5.3-2.07-7.49-3.89-2.32-2.07-4.16-4.63-5.39-7.49-1.54-3.69-2.25-7.68-2.1-11.68v-45.21c.02-3.18.63-6.33,1.8-9.28,2.08-5.67,6.42-10.22,11.98-12.57,5.86-2.35,12.4-2.35,18.26,0,2.72,1.19,5.16,2.92,7.19,5.09,2.09,2.25,3.72,4.9,4.79,7.78,1.21,3.15,1.81,6.5,1.8,9.88v5.39c0,.66-.54,1.2-1.2,1.2h-13.47c-.66,0-1.2-.54-1.2-1.2v-4.49c.07-2.37-.67-4.69-2.1-6.59-1.22-1.76-3.25-2.77-5.39-2.69-2.25-.25-4.46.79-5.69,2.69-1.11,2.44-1.63,5.11-1.5,7.78v41.62c-.13,2.29.39,4.57,1.5,6.59,1.31,1.79,3.5,2.71,5.69,2.4h2.69l2.4-1.5c.8-.74,1.42-1.67,1.8-2.69.49-1.44.69-2.97.6-4.49v-4.49c0-.66.54-1.2,1.2-1.2h13.17c.66,0,1.2.54,1.2,1.2v5.69c-.04,6.12-2.39,12.01-6.59,16.47-2.06,2.13-4.5,3.85-7.19,5.09-2.73,1.22-5.69,1.83-8.68,1.8h0Z"/><path id="path26" class="cls-3" d="m157.93,538.21c-2.86,0-5.7-.51-8.38-1.5-2.88-1.08-5.53-2.7-7.78-4.79-2.32-2.19-4.15-4.84-5.39-7.78-1.48-3.5-2.2-7.28-2.1-11.08v-43.11c-.05-3.7.66-7.37,2.1-10.78,1.24-2.94,3.07-5.59,5.39-7.78,2.26-2.09,4.9-3.71,7.78-4.79,5.5-2.1,11.57-2.1,17.07,0,2.88,1.08,5.53,2.7,7.78,4.79,2.32,2.19,4.15,4.84,5.39,7.78,1.43,3.41,2.14,7.08,2.1,10.78v43.41c.1,3.8-.62,7.58-2.1,11.08-1.24,2.94-3.07,5.59-5.39,7.78-2.26,2.09-4.9,3.71-7.78,4.79-2.8.92-5.74,1.32-8.68,1.2h0Zm0-77.25c-4.29-.22-7.95,3.09-8.17,7.38-.03.54,0,1.07.08,1.6v43.41c-.2,2.44.67,4.85,2.4,6.59,3.36,2.88,8.32,2.88,11.68,0,1.72-1.74,2.6-4.15,2.4-6.59v-43.41c.16-2.43-.71-4.83-2.4-6.59-1.64-1.46-3.79-2.21-5.99-2.1v-.3Z"/><path id="path28" class="cls-3" d="m239.37,537.61h-12.28c-.56.02-1.06-.36-1.2-.9l-17.37-45.21c-.34-.36-.91-.38-1.27-.04-.1.09-.18.21-.23.34v44.31c0,.66-.54,1.2-1.2,1.2h-13.47c-.66,0-1.2-.54-1.2-1.2v-88.92c0-.66.54-1.2,1.2-1.2h12.57c.56-.02,1.06.36,1.2.9l17.07,45.21c.34.36.91.38,1.27.04.1-.09.18-.21.23-.34v-44.61c0-.66.54-1.2,1.2-1.2h13.17c.66,0,1.2.54,1.2,1.2v88.92c.18.64-.19,1.3-.83,1.48-.02,0-.05.01-.07.02h0Z"/><path id="path30" class="cls-3" d="m314.52,537.61h-13.17c-.66,0-1.2-.54-1.2-1.2v-44.31c-.17-.46-.69-.7-1.16-.53-.13.05-.25.13-.34.23l-10.18,31.74-.9.6h-7.19l-.9-.6-9.88-31.74c-.34-.36-.91-.38-1.27-.04-.1.09-.18.21-.23.34v44.01c0,.66-.54,1.2-1.2,1.2h-13.17c-.66,0-1.2-.54-1.2-1.2v-88.92c0-.66.54-1.2,1.2-1.2h12.57c.56-.02,1.06.36,1.2.9l15.87,42.81c.27.41.83.53,1.25.25.1-.07.19-.15.25-.25l15.57-43.11c.14-.54.64-.92,1.2-.9h12.87c.66,0,1.2.54,1.2,1.2v88.92c.34.57.15,1.3-.42,1.64-.23.14-.51.19-.78.16h0Z"/><path id="path32" class="cls-3" d="m368.71,537.61h-39.82c-.66,0-1.2-.54-1.2-1.2v-89.22c0-.66.54-1.2,1.2-1.2h40.12c.66,0,1.2.54,1.2,1.2v12.87c0,.66-.54,1.2-1.2,1.2h-24.85c-.5,0-.9.4-.9.9h0v20.66c0,.5.4.9.9.9h21.26c.66,0,1.2.54,1.2,1.2v12.87c0,.66-.54,1.2-1.2,1.2h-21.26c-.5,0-.9.4-.9.9h0v20.66c0,.5.4.9.9.9h24.85c.66,0,1.2.54,1.2,1.2v13.47c.19.63-.16,1.3-.79,1.5-.23.07-.48.07-.7,0h0Z"/><path id="path34" class="cls-3" d="m398.35,537.61h-18.26c-.66,0-1.2-.54-1.2-1.2v-89.22c0-.66.54-1.2,1.2-1.2h19.46c3.9-.1,7.77.62,11.38,2.1,2.98,1.3,5.64,3.24,7.78,5.69,3.53,4.34,5.63,9.68,5.99,15.27.6,8.38-1.2,16.77-8.08,21.86h-.3c2.58,1.58,4.66,3.86,5.99,6.59,2.44,5.65,3.17,11.9,2.1,17.96-.48,5.38-2.57,10.49-5.99,14.67-4.19,4.79-11.08,7.49-20.06,7.49h0Zm-3.89-17.07c0,.5.4.9.9.9h3.89c2.06.08,4.11-.33,5.99-1.2,6.29-3.29,6.59-14.67,1.8-19.46l-.9-.9c-2.99-2.1-7.19-1.5-10.78-1.5-.5,0-.9.4-.9.9h0v21.26Zm0-37.43c0,.5.4.9.9.9h4.19c4.19,0,6.89-.9,8.38-2.99,3.1-5.19,2.99-11.69-.3-16.77-2.28-2.28-5.48-3.39-8.68-2.99h-3.89c-.5,0-.9.4-.9.9h0l.3,20.96Z"/><path id="path36" class="cls-3" d="m457.34,538.21c-2.86,0-5.7-.51-8.38-1.5-2.88-1.08-5.53-2.7-7.78-4.79-2.32-2.19-4.15-4.84-5.39-7.78-1.48-3.5-2.2-7.28-2.1-11.08v-43.11c-.05-3.7.66-7.37,2.1-10.78,1.24-2.94,3.07-5.59,5.39-7.78,2.26-2.09,4.9-3.71,7.78-4.79,5.5-2.1,11.57-2.1,17.07,0,2.88,1.08,5.53,2.7,7.78,4.79,2.32,2.19,4.15,4.84,5.39,7.78,1.43,3.41,2.14,7.08,2.1,10.78v43.41c.1,3.8-.62,7.58-2.1,11.08-1.24,2.94-3.07,5.59-5.39,7.78-2.26,2.09-4.9,3.71-7.78,4.79-2.8.92-5.74,1.32-8.68,1.2h0Zm0-77.25c-4.29-.22-7.95,3.09-8.17,7.38-.03.54,0,1.07.08,1.6v43.41c-.2,2.44.67,4.85,2.4,6.59,3.36,2.88,8.32,2.88,11.68,0,1.72-1.74,2.6-4.15,2.4-6.59v-43.41c.16-2.43-.71-4.83-2.4-6.59-1.64-1.46-3.79-2.21-5.99-2.1v-.3Z"/><path id="path38" class="cls-3" d="m534.28,537.61h-40.12c-.66,0-1.2-.54-1.2-1.2v-89.22c0-.66.54-1.2,1.2-1.2h13.17c.66,0,1.2.54,1.2,1.2v73.35c0,.5.4.9.9.9h24.85c.66,0,1.2.54,1.2,1.2v13.47c.17.64-.22,1.29-.86,1.46-.11.03-.22.04-.34.04h0Z"/><rect id="rect40" class="cls-3" x="545.36" y="483.72" width="29.64" height="16.14" rx=".3" ry=".3"/><rect id="rect42" class="cls-3" x="25" y="483.72" width="29.64" height="16.14" rx=".3" ry=".3"/><path id="path44" class="cls-1" d="m300.15,113.66c-18.25-.02-36.43,2.09-54.19,6.29-17.19,4.05-33.79,10.29-49.4,18.56-2.31,1.18-3.88,3.42-4.19,5.99-.6,5.09-1.2,9.88-1.5,14.67s-.6,9.88-.6,14.67c-.02,37.41,9.79,74.16,28.44,106.59,18.53,32.26,45.29,59.01,77.54,77.54,2.32,1.34,5.17,1.34,7.49,0,32.37-18.49,59.23-45.25,77.84-77.54,18.66-32.42,28.46-69.18,28.44-106.59,0-4.79-.3-9.58-.6-14.67-.3-5.09-.9-9.88-1.5-14.67h0c-.31-2.57-1.89-4.81-4.19-5.99-15.61-8.27-32.21-14.51-49.4-18.56-17.76-4.2-35.94-6.31-54.19-6.29h0Z"/><path id="path46" class="cls-4" d="m168.41,260.37l-22.16,50.3h-.6c-11.9-23.9-18.06-50.25-17.96-76.95h0l38.32,19.76c2.47,1.33,3.51,4.32,2.4,6.89h0Zm259.28-106.29c.3,5.69.6,11.08.6,16.47-.04,20.62-2.76,41.15-8.08,61.08l47.6-35.93c-4-17.62-10.77-34.5-20.06-50l-20.66.9c.3,2.69.6,5.09.9,7.78l-.3-.3Zm-196.11-50.3l6.59-30.54c-24.23,9.38-46.03,24.12-63.77,43.11l31.14-3.89c8.51-3.4,17.2-6.3,26.05-8.68Zm162.57,8.68l31.14,3.89c-17.57-18.92-39.15-33.65-63.17-43.11l6.29,30.54c8.84,2.38,17.54,5.28,26.05,8.68h-.3Zm-53.89-14.97l-12.87-33.53c-18.15-2.92-36.64-2.92-54.79,0l-12.87,33.83c26.69-4.09,53.85-4.09,80.54,0v-.3Zm-168.56,73.05c0-5.39.3-10.78.6-16.47.3-5.69.6-5.09.9-7.49l-20.96-.9c-9.32,15.59-16.09,32.57-20.06,50.3l47.6,35.93c-5.35-20.02-8.07-40.65-8.08-61.38h0Zm300.6,62.87l-38.32,20.06c-2.47,1.33-3.51,4.32-2.4,6.89l22.16,50.3h.6c11.9-23.9,18.06-50.25,17.96-76.95v-.3Zm-269.16,55.69c-3.29-5.69-5.99-11.38-8.68-17.07l-28.44,70.06c15.96,19.82,36.1,35.87,58.98,47.01l39.82-29.94c-25.04-18.99-46.02-42.81-61.68-70.06Zm91.32,91.02l-29.64,22.46c23.21,4.81,47.15,4.81,70.36,0l-29.64-22.46c-3.19-2.4-7.58-2.4-10.78,0h-.3Zm102.1-91.02c-15.67,27.24-36.64,51.06-61.68,70.06l39.52,30.24c22.88-11.13,43.02-27.18,58.98-47.01l-28.44-70.06c-2.1,5.69-4.79,11.38-8.08,16.77h-.3Z"/><path id="path48" class="cls-2" d="m360.63,213.06c.3.34.3.86,0,1.2l-2.1,2.69h-1.2c-4.29-4.96-9.6-8.94-15.57-11.68-6.31-2.82-13.15-4.25-20.06-4.19h-.6c-9.65.11-19.04,3.14-26.95,8.68-7.27,4.79-12.91,11.68-16.17,19.76l-.9.6h0l-.6-.6-1.2-5.09c-.04-.42.06-.85.3-1.2,1.29-2.42,2.79-4.73,4.49-6.89,3.01-4.13,6.65-7.76,10.78-10.78,8.79-6.13,19.22-9.47,29.94-9.58h.6c7.64,0,15.2,1.63,22.16,4.79,6.48,2.87,12.29,7.05,17.07,12.28h0Zm2.1-9.88h0c-11.38-10.11-26.1-15.66-41.32-15.57h-.9c-10.6.12-21,2.9-30.24,8.08-8.57,4.81-15.78,11.71-20.96,20.06-.07.19-.07.41,0,.6v1.2l2.69,1.5h1.2c4.74-7.61,11.33-13.89,19.16-18.26,8.5-4.8,18.08-7.37,27.84-7.49h.9c15.13-.14,29.69,5.79,40.42,16.47h.9c.38-.13.62-.5.6-.9v-4.49c.17-.38.17-.82,0-1.2h-.3Zm0-10.78c-12.05-8.36-26.35-12.85-41.02-12.87h-.9c-12.53.14-24.81,3.55-35.63,9.88-9.96,5.85-18.22,14.21-23.95,24.25-.16.28-.16.62,0,.9l.9.6h3.29l1.2-.6c5.29-8.52,12.59-15.61,21.26-20.66,9.99-5.89,21.34-9.09,32.93-9.28h.9c14.59-.07,28.79,4.67,40.42,13.47h.9c.38-.13.62-.5.6-.9v-3.59c-.06-.53-.41-.99-.9-1.2Zm-41.02-20.96h-1.2c-13.98.13-27.69,3.84-39.82,10.78-10.75,6.18-19.8,14.92-26.35,25.45-.35.44-.35,1.06,0,1.5l1.8,2.4h1.5c6.19-10.34,14.96-18.91,25.45-24.85,11.4-6.55,24.28-10.05,37.43-10.18h.9c14.25-.18,28.26,3.66,40.42,11.08h1.2l2.4-2.1c.26-.22.38-.57.3-.9v-.6c-13.07-8.29-28.24-12.65-43.71-12.57h-.3Zm46.11,4.19c-13.91-8.09-29.72-12.33-45.81-12.28h-1.2c-14.97.12-29.67,3.92-42.81,11.08-11.76,6.43-21.81,15.56-29.34,26.65-.27.46-.27,1.03,0,1.5l2.1,2.4h1.5c7.1-10.86,16.77-19.81,28.14-26.05,12.32-6.72,26.09-10.31,40.12-10.48h1.2c15.49-.08,30.7,4.06,44.01,11.98h.9l.6-.6.9-3.29c.08-.33-.04-.68-.3-.9h0Zm-47.6-15.27h.9c.16-.28.16-.62,0-.9l-1.2-2.69c-.25-.59-.86-.95-1.5-.9h0c-14.59.52-28.89,4.2-41.92,10.78-12.68,6.41-23.74,15.63-32.34,26.95-.37.41-.48.98-.3,1.5l1.5,2.99.6.6h.9c16.99-23.68,44.21-37.9,73.35-38.32h0Zm20.96,1.8c8.77,1.77,17.24,4.8,25.15,8.98h.9c.26-.22.38-.57.3-.9l-.9-3.89c-.15-.42-.48-.75-.9-.9-6.41-3.11-13.13-5.52-20.06-7.19h-1.2l-3.59,2.4c-.26.22-.38.57-.3.9l.6.6Zm-67.07,1.5c6.86-3.49,14.09-6.2,21.56-8.08,7.54-1.94,15.27-3.04,23.05-3.29l.9-.6c.16-.28.16-.62,0-.9l-1.8-2.99c-.34-.47-.92-.71-1.5-.6-7.38.37-14.7,1.47-21.86,3.29-7.89,2.03-15.52,4.94-22.75,8.68-13.76,7.11-25.74,17.24-35.03,29.64-.16.28-.16.62,0,.9l.6.6,2.99,1.2h1.2c8.68-11.59,19.83-21.1,32.63-27.84h0Zm-11.38-2.99c11.57-7.16,24.36-12.13,37.72-14.67l.6-.6c.08-.33-.04-.68-.3-.9l-2.99-2.69h-1.2c-12.92,2.78-25.27,7.74-36.53,14.67-10.58,6.46-20,14.65-27.84,24.25-.27.34-.38.77-.3,1.2l.6,4.19.6.6h.9c7.84-10.51,17.59-19.45,28.74-26.35v.3Zm-28.14,11.38h.9c14.31-14.87,32.27-25.71,52.1-31.44l.6-.6c.08-.33-.04-.68-.3-.9l-2.1-2.4c-.41-.37-.98-.48-1.5-.3-19.04,5.75-36.4,16.02-50.6,29.94-.27.34-.38.77-.3,1.2l.6,3.89.6.6Zm2.69-19.76v.6l2.69,2.1h1.2c9.38-7.41,19.76-13.46,30.84-17.96.38-.13.62-.5.6-.9.02-.4-.22-.77-.6-.9l-4.49-1.5h-1.2c-10.31,4.73-19.98,10.76-28.74,17.96l-.3.6Zm-2.1-3.59h.9c4.48-3.49,9.18-6.69,14.07-9.58.26-.22.38-.57.3-.9l-.6-.6-3.89-1.2h-1.2l-10.18,7.19c-.47.34-.71.92-.6,1.5l.6,3.29.6.3Zm90.42,89.82h0c-1.2-.93-2.67-1.45-4.19-1.5h0c-3.63-.17-6.71,2.65-6.88,6.28,0,.1,0,.2,0,.31.14,1.7.89,3.29,2.1,4.49l10.48,9.58h1.2l2.99-1.8v-.6c.08-.33-.04-.68-.3-.9-4.19-3.59-11.08-9.88-11.08-9.88l-.6-1.2c.15-.87.91-1.51,1.8-1.5h1.2l9.58,8.38h.9l.6-.6,1.2-3.29c.08-.33-.04-.68-.3-.9l-8.68-6.89Zm6.59-5.69c-2.98-2.63-6.8-4.12-10.78-4.19h-.6c-4.13.03-8.09,1.63-11.08,4.49-2.88,2.72-4.5,6.52-4.49,10.48.08,3.18,1.24,6.24,3.29,8.68,5.46,6.63,12.18,12.13,19.76,16.17h.9c.26-.22.38-.57.3-.9l-1.2-4.49v-.6c-6.01-3.44-11.38-7.9-15.87-13.17-1.32-1.61-2.05-3.61-2.1-5.69-.02-2.61,1.07-5.12,2.99-6.89,2.03-1.9,4.7-2.97,7.49-2.99h.6c2.78.05,5.44,1.12,7.49,2.99l8.38,7.49h1.2l2.69-2.1v-.6c-.02-.23-.13-.45-.3-.6l-8.68-8.08Zm5.69-6.29c-1.44-1.31-3.05-2.42-4.79-3.29-3.63-1.79-7.63-2.72-11.68-2.69h-.3c-6.45.01-12.66,2.47-17.37,6.89-4.5,4.28-7,10.26-6.89,16.47.11,4.8,1.79,9.43,4.79,13.17,4.73,6.04,10.39,11.3,16.77,15.57h.9l3.59-1.5.6-.6c.08-.33-.04-.68-.3-.9-6.64-4.16-12.51-9.42-17.37-15.57-2.29-2.9-3.55-6.48-3.59-10.18-.04-4.91,2.03-9.6,5.69-12.87,3.75-3.46,8.67-5.38,13.77-5.39h.3c3.21-.02,6.39.69,9.28,2.1l3.59,2.69,8.98,8.38h.9c.29-.09.51-.31.6-.6v-4.49c.08-.42-.03-.86-.3-1.2l-7.19-5.99Zm-16.47-14.07h-.6c-8.68.04-17.02,3.36-23.35,9.28-6.16,5.71-9.64,13.75-9.58,22.16.13,6.41,2.34,12.61,6.29,17.66,5.15,6.7,11.31,12.56,18.26,17.37h.9l.6-.6.9-3.29c.08-.33-.04-.68-.3-.9-6.23-4.35-11.78-9.59-16.47-15.57-3.24-4.21-5.03-9.36-5.09-14.67-.06-7.05,2.88-13.8,8.08-18.56,5.38-4.97,12.43-7.75,19.76-7.78h.6c8.02-.04,15.7,3.21,21.26,8.98h1.5l1.8-2.69c.13-.42.01-.88-.3-1.2-6.44-6.44-15.15-10.1-24.25-10.18h0Zm0-8.08h-.6c-11.04.08-21.64,4.36-29.64,11.98-7.79,7.27-12.14,17.49-11.98,28.14.06,8.14,2.8,16.03,7.78,22.46,7.25,9.11,16.2,16.74,26.35,22.46h1.2l2.4-2.4c.26-.22.38-.57.3-.9v-.6c-9.9-5.71-18.55-13.35-25.45-22.46-4.36-5.56-6.78-12.4-6.89-19.46-.08-9.2,3.72-18.01,10.48-24.25,7.04-6.66,16.35-10.41,26.05-10.48h0c9.75-.03,19.15,3.61,26.35,10.18h1.2l2.99-1.8v-.6c.08-.33-.04-.68-.3-.9-8.21-7.62-19.04-11.8-30.24-11.68v.3Zm-11.38,93.11h1.2l1.5-2.69c.23-.42.1-.94-.3-1.2-11.2-6.46-20.98-15.11-28.74-25.45h-.9l-.6.6-.9,3.89c-.08.42.03.86.3,1.2,7.96,9.56,17.6,17.57,28.44,23.65Zm5.39,11.98h.3v-4.49c.02-.4-.22-.77-.6-.9-10.67-5.23-20.39-12.21-28.74-20.66h-.9c-.38.13-.62.5-.6.9v4.49c0,.47.22.91.6,1.2,8.67,8.1,18.57,14.77,29.34,19.76l.6-.3Zm-21.86-8.38l-.6.6-.6,3.29c-.11.57.12,1.16.6,1.5,5.78,4.01,11.89,7.51,18.26,10.48h.9v-4.19c.02-.4-.22-.77-.6-.9-5.98-3-11.68-6.51-17.07-10.48l-.9-.3Zm26.65,28.44h.6c.16-.28.16-.62,0-.9l-2.69-4.49h-.6c-8.41-3.33-16.44-7.55-23.95-12.57h-.9c-.26.22-.38.57-.3.9v3.89c0,.47.22.91.6,1.2,8.38,5.27,17.31,9.59,26.65,12.87l.6-.9Zm-20.36-5.39h-.9c-.26.22-.38.57-.3.9l1.5,4.19.9.9c6.1,3.04,12.4,5.64,18.86,7.78h1.2l4.19-2.1c.41-.27.53-.83.25-1.25-.07-.1-.15-.19-.25-.25-8.89-2.43-17.52-5.74-25.75-9.88l.3-.3Z"/><path id="path50" class="cls-2" d="m347.16,262.16v11.68h-2.69v-8.68l-2.1.9c-.58-.66-.9-1.51-.9-2.4l3.59-1.5h2.1Z"/><path id="path52" class="cls-2" d="m357.63,267.55c0,4.79-2.69,6.59-7.19,6.59-.23-.46-.33-.98-.3-1.5-.03-.3-.03-.6,0-.9,2.69,0,4.49-.3,4.79-2.69-.55.56-1.31.89-2.1.9-1.98.17-3.72-1.29-3.89-3.27-.02-.21-.02-.42,0-.63,0-2.31,1.88-4.19,4.19-4.19,2.99,0,4.49,2.4,4.49,5.69h0Zm-4.49,0l2.1-.6c0-1.8-.9-2.99-2.1-2.99-.81-.19-1.61.31-1.8,1.12-.05.22-.05.45,0,.68-.37.74-.07,1.64.67,2.01.35.18.76.21,1.13.09v-.3Z"/><path id="path54" class="cls-2" d="m364.22,262.16v11.68h-2.69v-8.68l-2.1.9c-.58-.66-.9-1.51-.9-2.4l3.59-1.5h2.1Z"/><path id="path56" class="cls-2" d="m375,269.95c.19,2.14-1.39,4.03-3.53,4.22-.32.03-.64.02-.96-.03-2.31.19-4.33-1.53-4.52-3.83-.03-.32-.02-.64.03-.96-.03-3.97,2.94-7.33,6.89-7.78.45.71.66,1.55.6,2.4-2.03.01-3.89,1.17-4.79,2.99l2.1-.6c1.75-.51,3.58.49,4.09,2.23.13.44.16.9.1,1.36Zm-2.4,0c.02-.83-.64-1.51-1.47-1.53-.11,0-.22,0-.33.03l-2.1.6h0c0,1.5.9,2.4,1.8,2.4.76.34,1.64,0,1.98-.76.06-.14.1-.29.12-.44v-.3Z"/></g></svg>